<?xml version="1.0" standalone="no"?>
<!DOCTYPE svg PUBLIC "-//W3C//DTD SVG 20010904//EN"
 "http://www.w3.org/TR/2001/REC-SVG-20010904/DTD/svg10.dtd">
<svg version="1.0" xmlns="http://www.w3.org/2000/svg"
 width="1024.000000pt" height="1024.000000pt" viewBox="0 0 1024.000000 1024.000000"
 preserveAspectRatio="xMidYMid meet">
<metadata>
Created by potrace 1.14, written by Peter Selinger 2001-2017
</metadata>
<g transform="translate(0.000000,1024.000000) scale(0.100000,-0.100000)"
fill="#000000" stroke="none">
<path d="M5030 9793 c-1 -16 -7 -39 -14 -52 l-13 -24 -7 27 c-3 14 -11 26 -17
26 -7 0 -9 -9 -6 -21 3 -12 0 -30 -6 -40 -8 -14 -9 -22 -1 -27 11 -8 14 -52 3
-52 -16 0 -18 -51 -4 -90 8 -23 15 -50 14 -59 0 -13 -1 -14 -6 -1 -7 20 -44
60 -55 60 -5 0 -6 -4 -3 -10 3 -5 3 -10 -2 -10 -12 0 -8 -61 5 -69 9 -5 6 -14
-8 -29 -12 -12 -19 -26 -16 -30 2 -4 1 -14 -5 -22 -5 -8 -9 -10 -9 -5 -1 21
-17 35 -33 29 -13 -5 -14 -10 -6 -26 7 -14 7 -23 -1 -33 -9 -10 -7 -20 5 -39
10 -14 14 -26 10 -26 -3 0 1 -7 9 -16 9 -8 14 -20 11 -25 -9 -14 -25 -11 -25
5 0 8 -8 13 -17 12 -10 -2 -26 6 -36 18 -15 17 -20 18 -27 6 -13 -21 -12 -27
5 -34 8 -3 15 -17 15 -32 0 -22 4 -25 21 -21 15 4 19 2 15 -10 -3 -8 3 -26 13
-39 13 -16 21 -20 24 -12 2 7 8 9 13 5 8 -7 -12 -26 -28 -27 -3 0 -20 12 -37
26 -27 23 -31 24 -31 7 1 -22 24 -55 33 -46 4 3 7 1 7 -5 0 -5 -6 -13 -12 -16
-7 -3 -5 -4 6 -3 10 1 23 -5 29 -14 12 -18 1 -73 -13 -64 -5 3 -6 13 -3 22 5
12 2 15 -10 10 -8 -3 -17 -3 -19 1 -2 4 -23 17 -47 30 l-44 22 17 -25 c9 -14
14 -30 11 -35 -3 -6 1 -10 9 -10 9 0 16 -4 16 -10 0 -5 -4 -10 -10 -10 -5 0
-10 -4 -10 -10 0 -5 11 -10 23 -10 31 0 38 -9 26 -31 -8 -16 -6 -19 10 -19 11
0 25 -9 31 -20 6 -11 15 -18 21 -15 5 4 9 1 9 -4 0 -6 -7 -11 -15 -11 -8 0
-15 4 -15 9 0 5 -9 11 -20 14 -11 3 -20 0 -20 -6 0 -9 -3 -8 -8 0 -4 7 -18 14
-30 16 -12 2 -25 6 -28 10 -4 4 -14 7 -22 7 -13 0 -12 -3 2 -19 13 -15 14 -20
4 -24 -10 -4 -10 -6 0 -6 6 -1 12 -8 12 -16 0 -9 9 -15 24 -15 13 0 26 -7 30
-15 3 -8 16 -15 30 -15 30 0 44 -18 21 -26 -13 -6 -14 -8 -3 -15 10 -7 7 -11
-9 -15 -28 -8 -30 -24 -3 -24 11 0 20 4 20 9 0 5 11 11 25 13 14 3 25 1 25 -5
0 -6 7 -2 15 9 12 16 14 16 15 3 0 -9 6 -17 13 -16 29 1 47 -4 47 -11 0 -5
-41 -9 -91 -9 -85 -1 -94 -3 -118 -27 -23 -23 -23 -26 -7 -26 11 0 27 -7 37
-16 10 -9 39 -19 64 -22 47 -5 59 -28 14 -26 -13 1 -28 -5 -32 -13 -8 -12 -13
-11 -32 7 -13 12 -28 19 -34 16 -5 -4 -13 -1 -18 6 -4 7 -16 19 -26 27 -15 12
-17 12 -11 -3 8 -20 1 -20 -38 0 l-31 16 22 -31 c27 -38 15 -40 -61 -11 -29
11 -55 20 -57 20 -10 0 51 -49 68 -55 11 -3 18 -12 15 -19 -3 -9 4 -12 28 -9
25 3 29 2 18 -6 -13 -9 -12 -11 5 -12 l20 0 -20 -9 c-11 -4 -33 -6 -50 -4 -19
2 -14 -1 13 -9 24 -7 41 -15 37 -19 -4 -3 11 -6 32 -6 58 0 87 -6 102 -20 21
-20 -15 -43 -46 -29 -13 6 -23 14 -23 18 0 4 -13 3 -29 -2 -20 -7 -36 -7 -48
0 -11 5 -25 6 -33 1 -8 -5 -19 -6 -25 -2 -5 3 -21 7 -35 7 -14 1 -34 6 -45 12
-11 6 -38 14 -59 18 -49 10 -47 -13 3 -30 18 -6 30 -13 26 -16 -3 -4 8 -9 25
-13 34 -6 32 -25 -3 -27 -17 -1 -15 -3 8 -8 17 -4 36 -3 43 2 9 7 17 6 24 -1
9 -9 7 -15 -8 -26 -25 -19 -12 -31 16 -16 12 7 20 8 16 2 -3 -5 5 -13 19 -16
32 -8 32 -24 0 -32 -27 -7 -34 -24 -10 -24 8 0 15 3 15 8 0 4 13 14 28 23 24
13 32 14 46 4 11 -9 13 -15 6 -20 -5 -3 -8 -11 -5 -16 10 -15 -19 -21 -47 -10
-18 7 -29 6 -38 -2 -10 -9 -14 -9 -17 1 -3 6 -12 12 -21 12 -9 0 -35 7 -58 15
-47 16 -85 10 -77 -11 3 -8 20 -14 42 -14 l36 0 -24 -19 c-18 -14 -20 -19 -9
-24 8 -3 21 -1 29 4 8 5 27 9 44 9 28 0 28 -1 10 -14 -11 -7 -29 -16 -40 -19
-18 -4 -18 -5 3 -6 26 -1 28 -9 6 -25 -13 -10 -12 -12 6 -13 12 -1 24 5 27 13
7 18 37 18 52 0 9 -11 9 -15 -1 -19 -10 -4 -9 -6 2 -7 8 -1 -1 -8 -20 -16
l-35 -14 45 4 c25 3 59 8 77 11 24 5 37 3 50 -11 17 -17 17 -17 -7 -12 -14 4
-34 3 -45 -1 -17 -7 -15 -10 18 -21 23 -9 37 -20 37 -32 0 -21 -45 -19 -101 4
-20 9 -50 19 -67 23 -18 3 -34 11 -37 16 -9 13 -22 11 -28 -3 -3 -8 5 -14 21
-15 15 0 28 -6 30 -12 2 -6 11 -11 20 -11 13 0 14 -2 3 -9 -9 -6 -10 -11 -2
-15 6 -4 9 -11 6 -16 -3 -5 4 -11 15 -15 11 -4 18 -10 15 -15 -3 -5 7 -3 22 5
40 21 50 18 25 -5 -27 -26 -28 -34 -3 -20 29 15 54 13 47 -5 -6 -17 9 -21 19
-5 9 15 25 12 19 -4 -14 -36 -113 -38 -198 -2 -41 17 -66 15 -66 -5 0 -6 7 -9
15 -5 10 4 15 -1 15 -14 0 -14 5 -18 17 -13 10 4 14 2 10 -4 -4 -6 0 -19 9
-28 15 -14 18 -14 33 0 20 17 35 20 26 5 -6 -9 11 -14 43 -13 7 1 11 -5 8 -12
-2 -7 0 -17 6 -23 7 -7 4 -14 -11 -21 -26 -14 -101 1 -118 25 -10 14 -15 15
-28 4 -12 -10 -16 -9 -21 4 -6 15 -8 15 -20 -1 -12 -17 -15 -16 -37 11 -16 20
-29 27 -40 23 -10 -4 -17 -2 -17 3 0 6 -6 10 -13 10 -7 0 -34 13 -60 30 -26
16 -47 25 -47 20 0 -5 6 -13 13 -17 6 -4 20 -18 31 -30 15 -18 16 -25 6 -37
-10 -13 -7 -16 13 -21 32 -8 33 -45 2 -46 -20 0 -20 0 0 -8 11 -5 23 -4 26 1
3 5 18 6 32 3 l26 -7 -26 -26 -27 -26 33 -7 c18 -4 42 -5 54 -2 17 4 19 2 8
-5 -8 -6 -11 -17 -8 -26 4 -10 -1 -19 -16 -26 -22 -11 -22 -11 -2 5 19 16 19
16 -6 10 -18 -5 -28 -2 -32 8 -3 8 -19 18 -36 22 -20 4 -48 26 -76 58 -41 47
-44 48 -28 17 9 -19 19 -44 20 -55 2 -10 9 -22 15 -26 7 -4 4 -9 -8 -12 -18
-4 -18 -5 -1 -6 18 -1 56 -31 40 -31 -4 0 0 -7 10 -14 15 -12 16 -14 2 -20
-21 -7 -19 -23 3 -23 49 0 55 -2 42 -18 -10 -12 -10 -15 1 -15 8 0 9 -3 4 -9
-13 -13 -96 14 -124 40 -11 10 -25 19 -31 19 -6 0 -9 4 -6 9 4 5 0 12 -6 14
-7 3 -3 6 9 6 16 1 20 6 16 20 -3 10 0 22 6 25 6 4 11 14 11 22 0 11 -5 10
-22 -6 -13 -12 -24 -16 -26 -10 -3 7 -9 7 -20 -2 -13 -11 -14 -11 -7 1 6 11 4
13 -11 7 -10 -3 1 12 26 35 l45 42 -37 -7 -37 -7 14 36 c16 36 4 49 -14 18
-14 -24 -14 2 -1 28 8 14 7 19 -1 19 -6 0 -9 6 -6 13 21 52 22 53 4 38 -13
-10 -17 -10 -17 -1 0 10 -3 10 -15 0 -9 -8 -15 -9 -15 -2 0 6 5 14 10 17 8 5
7 11 -1 21 -8 10 -8 14 0 14 6 0 11 8 11 17 0 9 -3 14 -6 10 -9 -9 -34 19 -35
40 0 14 -2 13 -10 -5 -5 -13 -13 -21 -18 -18 -12 8 -18 -79 -8 -107 7 -18 6
-20 -4 -9 -7 6 -16 12 -20 12 -10 0 -6 -61 5 -80 6 -9 1 -7 -12 4 -29 25 -38
14 -25 -29 10 -32 10 -34 -7 -25 -36 19 -42 10 -16 -24 29 -39 34 -55 11 -36
-29 24 -24 4 7 -29 24 -26 26 -32 12 -29 -11 2 -25 9 -32 16 -15 14 -32 16
-32 4 0 -5 11 -22 25 -38 29 -34 26 -40 -13 -26 -26 9 -29 8 -25 -7 2 -9 18
-22 35 -29 l30 -11 -20 -29 c-20 -28 -20 -28 -1 -40 10 -7 27 -12 36 -13 16 0
15 -2 -2 -8 -11 -5 -25 -4 -32 1 -19 15 -66 21 -57 7 5 -9 -1 -10 -22 -5 -27
6 -28 5 -10 -9 11 -8 24 -15 29 -15 4 0 5 -5 2 -10 -7 -11 0 -14 49 -25 20 -4
26 -9 18 -17 -5 -5 -16 -7 -23 -3 -6 5 -28 9 -48 10 -20 1 -52 5 -71 9 l-35 7
33 -20 c18 -12 38 -21 44 -21 6 0 8 -3 5 -7 -4 -4 6 -12 23 -19 34 -15 40 -34
9 -34 -11 0 -18 4 -15 8 6 9 -72 8 -81 -2 -4 -3 1 -6 11 -6 10 0 14 -5 10 -11
-4 -8 1 -9 16 -4 20 6 21 5 11 -14 -12 -21 2 -31 14 -11 4 6 11 8 16 4 6 -3 5
-12 -3 -21 -11 -14 -8 -15 22 -9 19 3 29 3 22 0 -10 -5 -9 -9 5 -20 17 -13 17
-13 -4 -14 -12 0 -34 5 -49 10 -26 10 -27 10 -11 -12 8 -13 22 -22 31 -20 9 2
19 -4 22 -12 3 -9 11 -13 18 -9 6 3 6 0 -2 -8 -10 -11 -20 -11 -58 -1 -26 7
-49 11 -51 9 -8 -8 30 -38 42 -34 17 7 39 -9 31 -22 -9 -13 -43 -15 -51 -2 -3
6 -14 8 -25 6 -11 -2 -20 0 -20 4 0 4 -17 15 -38 23 l-38 15 15 -34 c8 -18 22
-33 29 -33 12 0 12 -3 2 -15 -10 -13 -9 -15 11 -15 16 0 20 -3 12 -11 -12 -12
-67 11 -77 33 -3 7 -3 2 0 -12 4 -14 9 -27 13 -30 7 -6 31 -48 31 -55 0 -9
-35 8 -68 32 l-33 25 21 -39 c17 -32 18 -38 5 -41 -8 -2 -12 -8 -9 -14 7 -11
-11 -8 -48 7 -10 4 -2 -10 17 -31 24 -26 32 -41 25 -48 -7 -7 -17 -7 -30 2
-25 15 -26 5 -3 -21 10 -10 18 -32 19 -47 2 -28 1 -29 -22 -13 -22 14 -24 14
-24 -4 0 -11 9 -29 20 -40 16 -18 17 -22 5 -27 -8 -3 -15 -17 -15 -31 0 -19 9
-31 35 -47 44 -25 39 -36 -5 -13 -18 9 -34 14 -36 12 -12 -11 50 -45 93 -52
26 -4 61 -14 78 -23 16 -8 55 -23 85 -33 l55 -18 -95 -1 c-52 0 -120 -3 -150
-7 l-55 -7 50 -8 c86 -14 2226 -21 2549 -9 159 6 294 15 299 20 10 10 -96 20
-228 22 -93 1 -243 14 -202 18 10 0 53 16 95 35 43 18 111 41 154 50 54 12 84
25 102 43 35 34 27 39 -23 14 -22 -12 -48 -21 -58 -20 -10 0 -1 9 22 19 22 10
39 21 38 24 -2 3 0 5 3 4 9 -4 32 44 29 61 -1 9 -15 23 -31 31 -28 14 -28 15
-6 18 12 2 22 7 22 12 0 5 -8 7 -17 4 -10 -3 -4 3 12 13 34 20 44 63 15 63
-10 0 -23 -7 -30 -15 -7 -8 -17 -15 -22 -15 -6 0 -5 7 2 15 10 12 10 21 1 41
-10 23 -10 26 4 20 9 -3 14 -2 11 3 -3 5 4 21 15 35 23 29 21 46 -2 24 -22
-22 -54 -16 -55 9 -1 12 3 20 7 17 5 -3 9 -1 9 4 0 14 44 62 58 62 7 0 12 7
12 15 0 14 -4 13 -32 -2 -40 -20 -58 -24 -58 -12 0 5 5 9 10 9 6 0 10 4 10 10
0 6 -9 6 -25 0 -15 -6 -26 -6 -30 0 -4 6 2 10 11 10 14 0 15 3 6 12 -8 8 -4
20 18 49 39 48 39 70 0 25 -28 -32 -84 -66 -109 -66 -6 0 -11 7 -11 15 0 8 9
15 20 15 13 0 18 5 14 15 -4 8 -1 21 4 28 6 7 16 26 22 42 11 28 11 29 -8 12
-11 -10 -36 -26 -55 -36 -30 -16 -37 -16 -41 -4 -9 22 -8 23 19 23 29 0 32 8
8 27 -17 13 -16 14 7 12 39 -2 46 1 30 11 -13 9 -13 11 -1 19 8 5 16 17 17 26
1 9 10 25 19 34 11 13 -1 10 -41 -10 -32 -16 -63 -34 -70 -40 -8 -7 -14 -6
-17 3 -4 11 -6 10 -6 0 -1 -7 -6 -10 -11 -7 -6 4 -16 2 -23 -3 -17 -13 -56
-22 -72 -15 -17 6 -8 33 11 33 8 0 14 5 14 11 0 8 5 7 16 -2 13 -11 17 -10 25
3 5 10 16 23 24 31 22 23 7 26 -37 9 -32 -13 -42 -14 -46 -4 -2 7 -10 19 -19
27 -16 16 -6 20 16 6 16 -10 46 13 37 28 -4 5 0 11 6 14 7 2 11 7 8 10 -3 3
-27 -1 -52 -11 -49 -17 -76 -10 -45 13 18 13 18 14 0 25 -14 9 -8 10 32 5 28
-3 45 -2 40 2 -6 4 -11 13 -10 20 0 20 14 26 30 13 9 -7 18 -10 22 -6 3 3 0 6
-7 6 -7 0 -10 3 -7 7 4 3 1 13 -6 21 -10 13 -8 15 20 9 26 -5 31 -3 26 8 -3
10 2 15 16 15 12 0 21 5 21 10 0 13 -27 12 -72 -4 -30 -11 -35 -11 -31 0 3 8
1 14 -5 14 -6 0 -12 -4 -14 -9 -1 -5 -16 -12 -33 -15 -16 -4 -24 -3 -17 0 6 3
9 10 6 16 -3 5 3 12 15 15 12 3 21 9 21 14 0 5 14 7 30 5 30 -3 30 -3 13 17
-18 20 -17 20 10 13 18 -4 26 -3 23 3 -4 5 9 17 29 27 33 15 55 34 40 34 -4 0
-33 -6 -64 -14 -31 -8 -72 -14 -91 -14 -19 0 -43 -3 -52 -7 -10 -4 -26 -4 -35
0 -15 6 -12 10 16 22 19 8 43 12 53 10 17 -5 22 3 19 28 -1 11 48 37 59 30 4
-2 7 2 7 10 0 17 -15 19 -37 6 -20 -14 -33 -2 -18 17 12 14 10 14 -9 3 -18 -9
-23 -9 -23 0 0 7 -8 5 -20 -6 -11 -10 -20 -14 -20 -10 0 5 -7 0 -16 -11 -11
-13 -17 -15 -20 -6 -3 6 -10 10 -15 6 -5 -3 -15 -2 -21 3 -12 6 29 21 69 25
21 2 23 27 3 41 -11 8 -17 17 -13 20 3 4 2 7 -4 7 -6 0 -13 7 -17 15 -4 11 6
20 34 32 39 17 81 73 43 58 -10 -4 -34 -9 -53 -12 -32 -4 -33 -3 -17 10 9 8
17 19 17 26 0 6 7 11 17 11 9 0 13 3 10 7 -4 3 -2 12 4 20 6 7 8 13 4 13 -4 0
-1 8 6 17 12 14 9 14 -21 -3 -19 -10 -38 -23 -42 -29 -9 -12 -22 21 -13 35 3
6 12 7 18 4 7 -4 9 -4 5 1 -4 4 -1 14 7 22 24 23 17 35 -10 17 -29 -19 -33 -7
-7 22 39 45 53 92 20 67 -7 -5 -26 -15 -43 -22 -29 -13 -29 -12 -11 7 23 26
33 107 12 99 -21 -8 -38 17 -32 48 3 14 2 33 -1 41 -4 12 -10 9 -25 -13 l-20
-28 7 30 c7 33 7 43 1 95 -2 19 -4 42 -5 51 0 9 -9 16 -18 15 -10 0 -18 4 -18
11 0 26 -15 24 -15 -3 0 -20 -3 -25 -9 -16 -7 11 -9 10 -15 -3 -3 -9 -10 -13
-16 -10 -6 4 -10 -5 -10 -19 0 -14 5 -26 11 -26 6 0 9 -6 6 -12 -2 -7 -10 -12
-16 -10 -8 2 -7 -6 3 -20 24 -34 20 -59 -4 -29 -18 21 -25 20 -21 -1 2 -14
-11 -8 -25 10 -11 14 -12 12 -5 -19 5 -20 11 -42 15 -48 5 -7 1 -9 -8 -5 -21
8 -21 -15 0 -44 24 -35 12 -45 -19 -16 l-28 26 7 -29 c4 -15 11 -33 15 -39 5
-6 6 -14 2 -17 -3 -4 2 -9 11 -13 9 -3 13 -10 10 -16 -3 -5 -11 -4 -20 3 -8 6
-14 9 -14 6 0 -3 -16 -1 -36 3 -36 8 -36 8 -15 -11 11 -10 25 -19 30 -19 6 0
8 -7 4 -15 -3 -9 -2 -15 3 -14 22 4 34 -2 34 -16 0 -8 5 -15 10 -15 6 0 10 -5
10 -12 0 -6 -10 -3 -21 8 -22 19 -22 19 -15 -6 6 -21 5 -22 -4 -7 -14 22 -34
22 -26 0 6 -15 4 -15 -14 2 -11 10 -20 14 -20 9 0 -5 -5 -2 -10 7 -5 9 -7 26
-5 38 3 17 0 21 -10 17 -10 -3 -15 1 -15 12 -1 15 -2 15 -15 -2 -8 -10 -16
-24 -19 -30 -3 -7 -11 -3 -20 8 -16 19 -16 19 -16 -5 0 -19 -2 -21 -10 -9 -8
12 -10 10 -10 -10 -1 -22 -30 -77 -30 -56 0 5 -8 2 -17 -5 -15 -12 -16 -12
-10 4 9 23 -6 22 -34 -4 -13 -11 -18 -18 -12 -14 8 4 11 1 7 -8 -5 -13 -62
-32 -70 -24 -2 2 0 16 5 33 7 24 10 26 16 12 4 -10 11 -15 16 -12 5 3 5 12 0
22 -10 19 4 45 29 55 12 4 11 6 -3 6 -31 2 -9 19 33 26 22 4 38 10 35 15 -3 5
1 11 7 13 7 3 -5 6 -27 7 l-40 2 30 13 c23 11 26 14 10 15 -17 0 -16 3 10 21
18 12 22 18 10 14 -44 -15 -75 -17 -75 -6 0 6 -11 11 -25 11 -14 0 -25 5 -25
10 0 6 5 10 11 10 5 0 8 4 4 9 -8 14 38 9 53 -6 10 -9 19 -10 32 -3 10 6 29
10 42 11 17 0 10 6 -27 24 l-50 23 35 7 c20 3 48 2 63 -4 25 -10 31 -7 28 12
-1 4 6 10 14 13 12 5 13 9 4 20 -9 11 -7 14 12 14 17 0 20 3 10 9 -9 6 -10 11
-2 15 6 4 11 12 11 18 0 6 -7 5 -17 -4 -34 -29 -179 -48 -169 -22 3 7 0 15 -7
17 -7 3 5 3 26 1 28 -3 37 0 37 11 0 8 -7 15 -15 15 -8 0 -15 4 -15 10 0 5 6
7 14 4 8 -3 23 -1 33 5 17 10 17 10 -2 11 -11 1 -14 4 -7 7 6 2 12 9 12 14 0
4 -7 6 -15 3 -9 -4 -15 -1 -15 7 0 8 -6 5 -15 -7 -11 -14 -17 -16 -23 -6 -6 9
-12 6 -22 -13 -8 -14 -19 -24 -26 -21 -8 3 -11 -1 -7 -10 3 -8 -1 -14 -10 -14
-11 0 -13 6 -9 22 l5 21 -24 -22 c-13 -12 -31 -28 -40 -36 -21 -20 -31 -19
-52 5 -17 21 -16 22 18 24 14 1 20 8 20 26 0 18 6 25 20 26 35 2 75 16 75 26
0 6 -6 8 -14 5 -8 -3 -22 1 -33 8 -16 13 -16 16 -3 25 10 6 11 10 3 10 -21 0
-15 17 8 23 12 3 18 10 14 16 -3 6 0 9 8 5 8 -3 17 2 21 12 10 26 0 28 -38 10
-40 -19 -46 -20 -46 -5 0 5 5 7 12 3 7 -4 8 -3 4 4 -10 17 -36 15 -36 -3 0 -8
-8 -22 -19 -31 -18 -16 -18 -17 1 -36 16 -16 18 -22 7 -29 -7 -4 -17 -5 -22
-2 -5 3 -3 9 4 14 11 7 10 9 -3 9 -10 0 -25 -11 -34 -25 -16 -24 -16 -27 2
-40 18 -14 18 -14 -3 -15 -12 0 -28 8 -35 18 -20 29 -48 35 -48 12 0 -11 6
-21 13 -21 6 -1 -6 -5 -28 -9 -29 -6 -46 -4 -63 7 -22 14 -23 13 -18 -5 7 -21
-18 -39 -29 -22 -4 6 0 10 7 10 9 0 9 3 -2 10 -13 9 -13 11 0 20 10 6 11 10 3
10 -17 0 -16 11 3 35 11 14 18 16 21 8 9 -24 23 -13 19 15 -2 15 -1 19 1 10 4
-14 8 -15 29 -6 21 10 25 18 22 40 -4 22 -1 28 14 28 20 0 24 -20 7 -37 -7 -7
-7 -13 0 -17 5 -4 15 3 21 15 7 11 14 18 17 15 3 -3 12 2 18 11 7 10 28 22 46
29 19 6 33 17 31 23 -1 6 10 16 25 22 27 10 27 11 9 25 -18 13 -16 14 23 14
38 0 42 2 31 15 -10 12 -9 15 6 15 13 0 19 8 20 26 2 23 1 24 -12 7 -7 -10
-14 -14 -14 -10 0 5 -10 1 -21 -7 -16 -11 -28 -12 -46 -5 -14 5 -28 7 -32 5
-4 -3 -13 -1 -21 5 -12 7 -11 9 5 9 16 0 17 2 5 10 -8 5 -11 12 -7 16 4 4 13
2 19 -4 15 -15 43 -15 70 -1 17 9 18 13 7 20 -8 5 -27 9 -44 9 -19 0 -25 3
-17 8 7 5 30 7 52 5 21 -1 42 2 45 7 3 6 1 10 -5 10 -6 0 -8 5 -5 10 4 6 -5
10 -20 10 -15 0 -24 4 -20 10 4 6 11 8 16 5 5 -4 14 -3 20 1 8 4 7 9 -2 15
-10 6 -5 9 16 9 29 1 29 1 11 15 -19 14 -18 15 10 15 20 0 25 3 15 9 -8 5 -11
17 -7 28 5 14 2 20 -10 20 -9 0 -19 -9 -22 -19 -5 -20 -22 -25 -22 -5 -1 6 -7
0 -15 -14 -22 -41 -42 -44 -37 -5 l5 31 -22 -19 c-11 -11 -21 -25 -21 -33 0
-7 -7 -13 -16 -13 -14 0 -14 2 0 22 27 39 19 55 -12 25 -16 -15 -31 -24 -35
-20 -12 12 -7 21 14 26 15 4 20 11 16 21 -4 10 -1 16 8 16 8 0 15 5 15 11 0 6
9 8 21 4 19 -6 21 -4 16 14 -4 16 -1 21 14 21 10 0 19 7 19 15 0 8 6 15 13 15
7 0 18 9 25 21 10 15 10 19 1 13 -7 -4 -28 -9 -47 -11 -20 -2 -42 -12 -49 -21
-8 -9 -12 -12 -9 -5 4 6 2 14 -3 17 -5 4 -12 -3 -16 -14 -5 -16 -9 -17 -20 -7
-11 10 -10 15 6 33 11 11 17 23 13 26 -3 4 1 17 9 30 8 12 18 39 21 58 3 19 3
29 0 23 -3 -7 -12 -13 -20 -13 -8 0 -14 -7 -14 -16 0 -8 -4 -13 -9 -9 -5 3
-12 -4 -16 -15 -3 -11 -11 -20 -16 -20 -11 0 -11 12 0 42 5 13 9 27 9 32 0 5
5 12 10 15 5 3 12 16 16 29 5 16 3 22 -8 22 -8 0 -18 -5 -21 -10 -4 -6 -11 -8
-16 -5 -5 3 0 15 11 27 10 12 22 41 26 65 7 46 -3 73 -13 35 -3 -12 -11 -22
-18 -22 -7 0 -16 -6 -19 -12 -3 -7 -3 5 1 26 4 28 3 37 -6 32 -6 -4 -11 -14
-11 -22 0 -8 -4 -14 -10 -14 -5 0 -20 -12 -33 -26 -24 -26 -25 -26 -43 -6 -11
10 -26 22 -34 25 -8 3 -2 5 14 3 18 -1 32 -10 37 -22 6 -17 8 -16 18 9 14 36
14 40 -1 31 -7 -4 -8 -3 -4 5 4 6 11 9 16 6 5 -3 11 -1 15 5 3 5 1 10 -4 10
-6 0 -11 5 -11 11 0 6 6 9 14 6 8 -3 17 1 20 9 3 9 2 12 -5 9 -5 -4 -17 -1
-25 6 -12 10 -12 14 6 26 21 15 25 39 10 63 -7 12 -11 10 -19 -10 l-10 -25 0
23 c-1 24 -31 64 -31 41 0 -7 -3 -9 -7 -5 -4 4 -6 22 -5 41 2 26 -1 35 -13 35
-10 0 -15 -10 -15 -27z m45 -165 c-8 -41 -16 -53 -25 -38 -9 15 -1 50 12 50 5
0 6 5 3 10 -3 6 -1 10 5 10 6 0 8 -12 5 -32z m75 -198 c0 -5 -5 -10 -11 -12
-7 -2 -8 -17 -4 -42 5 -26 10 -34 16 -24 7 10 9 9 9 -4 0 -22 -18 -24 -26 -3
-4 8 -10 12 -15 9 -5 -3 -30 -7 -56 -10 -43 -4 -46 -3 -24 8 36 18 71 57 60
64 -17 10 10 32 31 27 11 -3 20 -9 20 -13z m-220 -60 c8 -5 11 -10 5 -10 -5 0
-3 -4 5 -10 8 -5 11 -13 6 -17 -4 -4 -13 0 -20 9 -7 10 -16 15 -19 11 -4 -3
-7 1 -7 10 0 19 8 21 30 7z m195 -61 c-2 -22 -29 -44 -44 -35 -4 3 -17 -2 -27
-10 -18 -15 -18 -15 5 -10 16 3 21 2 14 -5 -19 -19 -58 -6 -59 19 -1 12 4 22
10 22 7 0 29 9 51 20 49 25 52 25 50 -1z m-5 -89 c0 -5 -2 -10 -4 -10 -3 0 -8
5 -11 10 -3 6 -1 10 4 10 6 0 11 -4 11 -10z m-12 -18 c7 -5 10 -16 6 -25 -3
-10 -1 -17 5 -17 6 0 8 -7 5 -15 -4 -10 0 -15 15 -15 35 0 24 -19 -19 -30 -21
-6 -42 -15 -45 -20 -3 -6 -17 -10 -30 -10 -13 0 -29 -8 -34 -17 -9 -16 -10
-16 -11 4 0 13 9 28 20 35 13 9 18 19 14 35 -7 26 13 32 23 8 4 -12 11 -8 28
17 21 30 22 34 7 46 -17 13 -5 17 16 4z m-103 -12 c-3 -5 0 -10 7 -10 8 0 5
-5 -5 -11 -14 -8 -22 -8 -30 1 -9 8 -8 10 6 4 13 -5 16 -2 11 10 -3 9 -1 16 6
16 6 0 8 -4 5 -10z m65 -14 c0 -3 -4 -8 -10 -11 -5 -3 -10 -1 -10 4 0 6 5 11
10 11 6 0 10 -2 10 -4z m-116 -21 c11 -8 15 -15 10 -15 -6 0 -19 7 -30 15 -10
8 -14 14 -9 14 6 0 19 -6 29 -14z m31 -54 c-3 -12 -10 -21 -15 -21 -4 0 -3 11
3 24 14 29 22 27 12 -3z m99 -50 c4 -5 -3 -7 -14 -4 -23 6 -26 13 -6 13 8 0
17 -4 20 -9z m95 -12 c-16 -10 -23 -4 -14 10 3 6 11 8 17 5 6 -4 5 -9 -3 -15z
m-289 -49 c0 -11 -2 -20 -5 -20 -2 0 -9 9 -15 20 -9 16 -8 20 5 20 8 0 15 -9
15 -20z m60 -12 c0 -13 -23 -5 -28 10 -2 7 2 10 12 6 9 -3 16 -11 16 -16z
m213 7 c-3 -9 -8 -14 -10 -11 -3 3 -2 9 2 15 9 16 15 13 8 -4z m-49 -21 c6 0
21 -2 34 -2 27 -2 29 -18 2 -27 -22 -7 -18 -25 6 -25 8 0 12 4 9 10 -3 6 1 7
9 4 19 -7 19 -9 6 -35 -12 -22 -35 -26 -26 -4 3 10 -3 17 -19 21 -14 3 -25 12
-25 19 0 16 -24 27 -75 32 -22 2 -44 8 -49 14 -6 5 11 6 43 3 43 -5 52 -3 45
8 -5 9 -3 9 10 -2 10 -8 24 -15 30 -16z m91 6 c-3 -5 -11 -10 -16 -10 -6 0 -7
5 -4 10 3 6 11 10 16 10 6 0 7 -4 4 -10z m-219 -46 c-8 -21 7 -25 26 -7 13 11
22 14 26 7 4 -6 16 -16 27 -22 11 -6 14 -12 8 -12 -7 0 -13 -7 -13 -16 0 -11
-6 -13 -22 -8 -13 4 -31 8 -40 8 -10 0 -18 4 -18 9 0 13 -27 37 -42 37 -10 0
-10 2 1 9 20 13 52 9 47 -5z m224 -34 c0 -5 -2 -10 -4 -10 -3 0 -8 5 -11 10
-3 6 -1 10 4 10 6 0 11 -4 11 -10z m53 -27 c-7 -2 -19 -2 -25 0 -7 3 -2 5 12
5 14 0 19 -2 13 -5z m-65 -15 c-2 -6 -10 -13 -16 -14 -7 -1 -8 0 -2 3 5 2 8 9
4 14 -3 5 0 9 6 9 7 0 10 -5 8 -12z m-127 -15 c7 -10 9 -15 5 -11 -5 4 -15 3
-23 -3 -10 -9 -13 -8 -13 3 0 13 9 28 15 28 2 0 9 -8 16 -17z m179 -213 c0 -5
-4 -10 -10 -10 -5 0 -10 5 -10 10 0 6 5 10 10 10 6 0 10 -4 10 -10z m-363 -56
c-3 -3 -12 -4 -19 -1 -8 3 -5 6 6 6 11 1 17 -2 13 -5z m333 -10 c0 -2 -9 -4
-20 -4 -11 0 -20 4 -20 9 0 5 9 7 20 4 11 -3 20 -7 20 -9z m643 -34 c3 -11 1
-23 -4 -26 -5 -3 -9 6 -9 20 0 31 6 34 13 6z m-666 -40 c-3 -11 -2 -20 2 -20
3 0 14 9 24 20 9 11 22 20 29 20 9 0 8 -3 -2 -10 -13 -9 -13 -11 0 -20 8 -5
23 -10 33 -10 9 0 17 -5 17 -10 0 -12 -43 -30 -68 -30 -16 1 -16 2 0 14 23 17
12 26 -23 19 -27 -5 -29 -3 -25 18 6 31 5 29 12 29 4 0 4 -9 1 -20z m671 -24
c-7 -8 -16 -12 -21 -9 -11 7 2 23 19 23 12 0 12 -2 2 -14z m-579 -108 c-10 -7
-8 -8 9 -3 12 4 22 2 22 -4 0 -5 -15 -13 -32 -17 -32 -7 -33 -8 -8 -15 16 -4
19 -7 8 -8 -10 -1 -23 -9 -29 -20 -12 -18 -13 -17 -41 7 -21 19 -25 28 -16 34
10 5 8 8 -4 8 -10 0 -18 4 -18 10 0 5 10 9 23 7 18 -2 21 2 19 23 -3 20 -1 23
9 13 22 -21 39 -15 39 15 l0 27 17 -33 c14 -29 14 -35 2 -44z m-102 56 c-3 -3
-12 -4 -19 -1 -8 3 -5 6 6 6 11 1 17 -2 13 -5z m70 -16 c-3 -8 -6 -5 -6 6 -1
11 2 17 5 13 3 -3 4 -12 1 -19z m-117 -52 c-15 -15 -12 -29 5 -22 19 7 51 -24
34 -34 -6 -4 -9 -13 -5 -19 5 -7 1 -9 -8 -5 -9 3 -16 10 -16 16 0 5 -8 7 -17
4 -10 -3 -25 -1 -33 4 -12 8 -12 10 3 16 20 7 23 34 5 34 -7 0 -5 5 5 11 9 6
15 15 12 20 -4 5 -10 7 -15 4 -4 -3 -7 3 -5 12 2 10 4 20 4 23 1 3 10 -8 21
-25 12 -19 16 -33 10 -39z m690 53 c0 -7 12 -23 28 -37 18 -17 21 -22 9 -18
-10 3 -27 6 -37 6 -12 0 -19 9 -22 30 -3 20 0 30 9 30 7 0 13 -5 13 -11z
m-1155 -39 c-3 -5 -11 -10 -16 -10 -6 0 -7 5 -4 10 3 6 11 10 16 10 6 0 7 -4
4 -10z m1283 -2 c-2 -6 -10 -14 -16 -16 -7 -2 -10 2 -6 12 7 18 28 22 22 4z
m-73 -60 c0 -6 -8 -12 -18 -14 -9 -1 -15 1 -12 6 3 4 -7 11 -20 14 -14 4 -23
11 -20 16 4 6 -1 13 -9 16 -9 3 -16 10 -16 14 0 4 21 -4 48 -17 26 -13 47 -29
47 -35z m-821 36 c9 -8 16 -23 16 -32 -1 -13 -6 -10 -21 11 -11 15 -25 25 -30
21 -5 -3 -9 0 -9 5 0 16 26 13 44 -5z m-149 -36 c3 -3 0 -8 -7 -11 -7 -2 -19
2 -26 9 -11 12 -9 13 7 11 11 -2 23 -6 26 -9z m115 2 c18 -12 2 -12 -25 0 -13
6 -15 9 -5 9 8 0 22 -4 30 -9z m-75 -10 c3 -5 -1 -10 -10 -10 -9 0 -13 5 -10
10 3 6 8 10 10 10 2 0 7 -4 10 -10z m55 -10 c0 -5 -10 -10 -22 -9 -22 0 -22 1
-3 9 11 5 21 9 23 9 1 1 2 -3 2 -9z m306 -1 c5 -9 -1 -10 -20 -5 -18 4 -25 3
-21 -4 3 -5 1 -10 -4 -10 -12 0 -14 13 -4 23 10 11 41 8 49 -4z m-86 -20 c0
-5 10 -9 22 -9 17 0 19 -3 11 -11 -9 -9 -18 -8 -37 5 -28 18 -36 39 -11 30 8
-4 15 -10 15 -15z m605 -7 c5 -27 24 -61 25 -44 0 6 4 12 10 12 5 0 7 -7 4
-15 -4 -8 -2 -15 4 -15 5 0 12 -6 15 -13 5 -13 -33 -18 -43 -6 -3 3 -18 13
-35 22 -20 11 -24 16 -12 17 16 0 23 22 17 60 -3 22 10 6 15 -18z m-525 -2 c0
-5 -5 -10 -11 -10 -5 0 -7 5 -4 10 3 6 8 10 11 10 2 0 4 -4 4 -10z m-177 -7
c-7 -2 -21 -2 -30 0 -10 3 -4 5 12 5 17 0 24 -2 18 -5z m774 -9 c-3 -3 -12 -4
-19 -1 -8 3 -5 6 6 6 11 1 17 -2 13 -5z m-617 -14 c-13 -8 -13 -10 0 -10 10 0
11 -3 2 -12 -8 -8 -15 -8 -27 2 -13 11 -13 15 -3 21 7 5 20 9 28 9 13 0 13 -1
0 -10z m-300 -25 c7 -8 8 -15 2 -15 -5 0 -15 7 -22 15 -7 8 -8 15 -2 15 5 0
15 -7 22 -15z m243 -2 c-3 -7 -9 -13 -13 -13 -5 0 -16 -3 -25 -6 -15 -6 -15
-4 -5 12 13 22 51 27 43 7z m172 7 c8 -13 -5 -13 -25 0 -13 8 -13 10 2 10 9 0
20 -4 23 -10z m231 -16 c-3 -8 -1 -14 5 -14 6 0 7 -4 4 -10 -3 -5 6 -12 21
-16 24 -6 25 -8 11 -19 -25 -18 -21 -25 16 -26 l32 -1 -30 -7 c-21 -4 -26 -9
-17 -15 7 -4 23 -5 36 -2 16 4 23 1 23 -10 0 -13 -8 -15 -44 -10 -25 3 -43 2
-43 -4 0 -6 5 -10 10 -10 6 0 9 -5 8 -12 -5 -21 -51 -40 -92 -39 -26 1 -43 -5
-51 -16 -17 -23 -38 -8 -25 18 7 13 21 19 43 19 21 0 36 7 45 20 7 11 19 20
26 20 8 0 18 5 22 12 5 7 1 9 -13 6 -11 -3 -38 -2 -59 2 -31 6 -33 8 -11 9 24
1 41 21 17 21 -5 0 -10 4 -10 8 0 5 14 7 30 6 17 -1 30 2 30 6 0 5 10 11 23
13 12 2 -2 5 -31 6 -57 1 -57 0 -9 52 19 21 42 16 33 -7z m-716 -1 c-8 -3 -22
-11 -30 -17 -13 -10 -13 -9 -1 7 7 9 21 17 30 16 13 0 14 -1 1 -6z m205 -12
c-3 -6 -11 -8 -17 -5 -6 4 -5 9 3 15 16 10 23 4 14 -10z m-107 -17 c25 -16 30
-37 7 -28 -8 4 -12 11 -8 18 5 8 3 8 -8 0 -17 -14 -49 -10 -60 8 -7 10 -11 10
-19 -2 -8 -13 -10 -13 -10 2 0 30 50 31 98 2z m152 16 c0 -5 -2 -10 -4 -10 -3
0 -8 5 -11 10 -3 6 -1 10 4 10 6 0 11 -4 11 -10z m200 -15 c0 -17 -27 -27 -34
-12 -2 7 -5 2 -5 -9 -1 -15 -9 -24 -26 -28 -14 -4 -23 -11 -20 -16 4 -6 11 -8
16 -5 5 4 9 1 9 -4 0 -19 17 -12 27 11 9 20 10 19 31 -16 13 -23 27 -34 34
-30 6 4 8 3 4 -4 -3 -5 -3 -12 1 -15 5 -2 2 -2 -4 -1 -7 2 -13 -1 -13 -6 0 -6
-10 -10 -22 -10 -20 0 -21 1 -3 20 10 11 14 20 9 20 -5 0 -15 -9 -22 -21 -8
-12 -19 -18 -28 -15 -11 4 -12 2 -4 -14 5 -10 10 -21 10 -24 0 -11 -28 -6 -32
6 -3 8 -11 9 -24 3 -10 -5 -27 -9 -37 -10 -17 -2 -17 -1 -1 16 10 11 14 22 11
26 -4 3 -7 2 -7 -4 0 -6 -13 -16 -30 -22 -16 -5 -30 -14 -30 -19 0 -22 -30 -5
-36 20 -4 22 -1 35 15 52 12 12 21 32 21 45 0 28 17 18 32 -17 l11 -27 10 39
c12 47 40 78 63 69 10 -3 15 -2 12 3 -3 5 9 10 28 11 22 1 34 -3 34 -12z m427
-1 c-3 -3 -12 -4 -19 -1 -8 3 -5 6 6 6 11 1 17 -2 13 -5z m-942 -24 c-3 -5
-11 -10 -16 -10 -6 0 -7 5 -4 10 3 6 11 10 16 10 6 0 7 -4 4 -10z m315 -21 c0
-6 -4 -7 -10 -4 -5 3 -10 11 -10 16 0 6 5 7 10 4 6 -3 10 -11 10 -16z m810 11
c0 -5 -2 -10 -4 -10 -3 0 -8 5 -11 10 -3 6 -1 10 4 10 6 0 11 -4 11 -10z
m-930 -14 c0 -11 -19 -15 -25 -6 -3 5 1 10 9 10 9 0 16 -2 16 -4z m776 -30
c-19 -20 -35 -29 -42 -24 -6 4 -15 4 -19 0 -5 -4 -5 -1 -1 6 5 7 14 11 21 8
23 -8 27 8 6 24 -20 14 -19 15 23 17 l44 1 -32 -32z m77 27 c-7 -2 -19 -2 -25
0 -7 3 -2 5 12 5 14 0 19 -2 13 -5z m-886 -22 c9 -11 20 -18 25 -15 4 3 8 0 8
-5 0 -6 11 -11 24 -11 35 0 47 -20 31 -50 -18 -33 -18 -41 0 -34 23 9 18 -14
-6 -27 -12 -6 -19 -7 -16 -2 8 13 -38 37 -52 29 -6 -4 -11 -1 -11 8 0 8 -5 16
-12 18 -13 5 -2 28 13 28 6 0 8 -4 5 -9 -7 -11 14 -28 34 -26 8 0 14 7 12 15
-2 7 3 17 10 21 9 6 8 9 -7 10 -11 1 -26 1 -32 0 -7 -1 -13 3 -13 10 0 6 -7 8
-16 5 -9 -3 -12 -2 -9 4 4 6 -4 19 -17 30 -19 16 -20 19 -5 20 9 0 25 -9 34
-19z m403 14 c0 -2 -10 -10 -22 -16 -21 -11 -22 -11 -9 4 13 16 31 23 31 12z
m510 -14 c0 -14 -41 -41 -62 -41 -10 0 -18 4 -18 9 0 16 27 31 44 25 9 -3 16
-1 16 5 0 6 5 11 10 11 6 0 10 -4 10 -9z m-792 -13 c10 -10 15 -10 22 2 6 9
10 10 10 3 0 -15 -37 -36 -50 -28 -12 7 -13 35 -2 35 4 0 14 -6 20 -12z m609
-34 c-3 -3 -12 -4 -19 -1 -8 3 -5 6 6 6 11 1 17 -2 13 -5z m-890 -10 c-3 -3
-12 -4 -19 -1 -8 3 -5 6 6 6 11 1 17 -2 13 -5z m125 -9 c13 -17 9 -22 -17 -28
-14 -2 -23 -2 -20 1 3 3 -2 13 -11 23 -15 17 -15 18 12 16 16 -1 32 -6 36 -12z
m-112 -10 c-7 -9 -15 -13 -19 -10 -3 3 1 10 9 15 21 14 24 12 10 -5z m177 -7
c-3 -8 -6 -5 -6 6 -1 11 2 17 5 13 3 -3 4 -12 1 -19z m648 12 c-3 -5 1 -10 9
-10 9 0 16 -5 16 -10 0 -6 8 -13 18 -17 9 -3 30 -18 46 -32 l28 -26 -7 24 c-5
16 -4 21 4 17 6 -4 11 -14 11 -21 0 -8 9 -19 20 -25 11 -6 20 -7 20 -3 0 4 5
2 12 -5 14 -14 19 -62 6 -62 -4 0 -8 7 -8 16 0 13 -3 14 -15 4 -16 -13 -39 -4
-29 12 4 7 2 8 -4 4 -7 -4 -12 -2 -12 5 0 7 -8 6 -25 -5 -13 -9 -30 -16 -37
-16 -9 0 -9 3 2 10 13 8 13 11 1 22 -10 10 -12 10 -7 1 10 -18 -9 -16 -23 1
-8 10 -9 16 -1 21 16 10 -8 48 -26 41 -9 -3 -24 -1 -35 4 -21 12 -26 1 -6 -19
10 -10 4 -12 -30 -10 -24 2 -43 5 -43 7 0 9 30 32 43 32 8 0 25 11 38 25 24
24 46 34 34 15z m-775 -4 c0 -2 -7 -6 -15 -10 -8 -3 -15 -1 -15 4 0 6 7 10 15
10 8 0 15 -2 15 -4z m530 -30 c8 -3 -2 -4 -22 -1 -27 4 -38 2 -39 -7 0 -7 -4
-4 -8 7 -10 25 17 39 39 20 8 -7 22 -15 30 -19z m-240 -6 c0 -5 -4 -10 -10
-10 -5 0 -10 5 -10 10 0 6 5 10 10 10 6 0 10 -4 10 -10z m-386 -19 c4 -5 -3
-7 -14 -4 -23 6 -26 13 -6 13 8 0 17 -4 20 -9z m436 -17 c0 -2 -9 0 -20 6 -11
6 -20 13 -20 16 0 2 9 0 20 -6 11 -6 20 -13 20 -16z m745 15 c5 -6 -9 -9 -39
-8 -24 2 -43 6 -40 11 7 12 72 10 79 -3z m-835 -14 c0 -8 5 -15 11 -15 5 0 7
-5 4 -10 -4 -6 -12 -5 -21 4 -8 9 -21 13 -29 10 -8 -4 -15 -1 -15 4 0 9 16 17
43 21 4 0 7 -6 7 -14z m167 -9 c-3 -7 0 -19 6 -25 6 -6 7 -11 1 -11 -21 0 -33
22 -21 36 16 17 20 17 14 0z m343 -21 c0 -8 -7 -15 -16 -15 -8 0 -12 -4 -9
-10 3 -5 20 -10 36 -10 22 0 28 -4 22 -12 -4 -7 -8 -17 -8 -23 -1 -11 -9 -11
-39 1 -15 6 -18 4 -12 -7 4 -8 -4 -1 -17 15 -18 20 -26 24 -30 15 -4 -11 -6
-11 -6 1 -1 14 54 60 71 60 5 0 8 -7 8 -15z m-375 -25 c3 -6 -1 -7 -9 -4 -18
7 -21 14 -7 14 6 0 13 -4 16 -10z m-1153 -22 c4 -19 0 -23 -22 -23 -26 0 -27
1 -11 22 20 28 28 29 33 1z m1441 -25 c-21 -8 -15 -22 7 -18 11 2 20 -2 20 -9
0 -8 -12 -11 -35 -8 -28 3 -33 7 -25 17 8 9 7 14 -2 18 -7 3 1 5 17 5 17 0 24
-2 18 -5z m-1457 -21 c-7 -12 -46 -23 -46 -13 0 9 43 31 49 25 1 -1 0 -7 -3
-12z m716 -2 c16 -14 18 -20 7 -20 -8 -1 0 -7 16 -14 17 -7 31 -10 33 -5 2 4
11 5 21 2 11 -3 29 1 42 7 21 12 21 14 6 25 -9 7 -17 16 -17 20 0 5 9 0 20
-10 15 -14 17 -22 9 -37 -6 -11 -9 -22 -6 -24 8 -8 56 15 79 38 22 22 23 22
27 3 2 -10 -2 -21 -8 -23 -6 -2 -11 -7 -11 -12 0 -12 46 -18 64 -8 15 8 53 -6
67 -26 8 -11 22 11 15 23 -4 5 2 7 13 4 10 -2 18 -12 17 -20 0 -9 18 -26 42
-39 42 -22 42 -22 15 -28 -36 -7 -66 -4 -75 9 -5 7 -14 6 -28 -2 -26 -17 -30
-16 -30 2 0 17 -26 21 -32 4 -2 -6 -14 -2 -29 9 -25 20 -90 25 -117 8 -7 -4
-15 -1 -18 8 -3 9 -12 16 -20 16 -22 0 -117 48 -149 76 -16 14 -25 23 -18 20
6 -4 14 -2 18 4 9 15 23 12 47 -10z m878 10 c0 -5 -5 -10 -11 -10 -5 0 -7 5
-4 10 3 6 8 10 11 10 2 0 4 -4 4 -10z m-958 -23 c8 -13 1 -27 -14 -27 -6 0 -9
3 -5 6 3 4 -4 15 -16 26 l-22 19 25 -7 c14 -4 28 -11 32 -17z m-87 3 c7 -12
-2 -12 -30 0 -19 8 -19 9 2 9 12 1 25 -3 28 -9z m270 0 c3 -5 1 -10 -4 -10 -6
0 -11 5 -11 10 0 6 2 10 4 10 3 0 8 -4 11 -10z m825 -28 c3 -3 -5 -1 -17 2
-18 6 -23 3 -23 -10 0 -13 -3 -14 -15 -4 -13 11 -13 14 2 25 17 13 22 12 53
-13z m-590 13 c0 -7 -30 -13 -34 -7 -3 4 4 9 15 9 10 1 19 0 19 -2z m40 -5 c0
-5 -7 -10 -16 -10 -8 0 -12 5 -9 10 3 6 10 10 16 10 5 0 9 -4 9 -10z m120 -10
c0 -16 -21 -22 -34 -11 -10 9 -15 8 -20 -4 -3 -9 0 -15 9 -15 7 0 17 -4 20
-10 4 -6 -11 -10 -37 -10 -24 0 -38 4 -32 8 6 4 16 16 22 28 11 21 72 33 72
14z m-1222 -53 c-7 -6 -20 -13 -29 -13 -13 -1 -14 3 -5 22 6 13 13 18 17 12 4
-6 10 0 15 13 l8 24 4 -23 c2 -12 -3 -28 -10 -35z m1389 47 c-3 -3 -12 -4 -19
-1 -8 3 -5 6 6 6 11 1 17 -2 13 -5z m313 -34 c0 -5 -5 -10 -11 -10 -5 0 -7 5
-4 10 3 6 8 10 11 10 2 0 4 -4 4 -10z m-290 -10 c8 -5 11 -10 5 -10 -5 0 -17
5 -25 10 -8 5 -10 10 -5 10 6 0 17 -5 25 -10z m-642 -12 c43 -8 58 -14 46 -19
-11 -3 -29 -2 -42 2 -15 6 -21 5 -17 -1 3 -6 13 -10 21 -10 8 0 14 -4 14 -10
0 -5 -4 -10 -9 -10 -6 0 -13 5 -16 10 -3 6 -15 10 -25 10 -10 0 -22 5 -26 12
-4 7 -3 8 4 4 7 -4 12 -3 12 3 0 5 -12 12 -27 14 -16 2 -22 5 -14 6 7 0 43 -4
79 -11z m925 -20 c6 -21 7 -21 25 -5 10 9 22 17 27 17 4 0 -2 -9 -15 -20 -13
-11 -31 -20 -42 -20 -10 0 -21 0 -25 0 -5 0 -8 6 -8 13 0 6 6 11 14 9 8 -2 11
3 8 13 -4 8 -3 15 2 15 5 0 11 -10 14 -22z m-1292 2 c4 0 6 -7 2 -16 -6 -16
-7 -16 -18 0 -14 18 -30 22 -19 4 4 -7 3 -8 -5 -4 -16 10 -2 29 16 22 8 -3 19
-6 24 -6z m499 0 c0 -5 -7 -10 -16 -10 -8 0 -12 5 -9 10 3 6 10 10 16 10 5 0
9 -4 9 -10z m740 -10 c0 -5 -7 -10 -16 -10 -8 0 -12 5 -9 10 3 6 10 10 16 10
5 0 9 -4 9 -10z m-1618 -32 c-11 -11 -32 -3 -32 12 0 4 9 6 21 3 13 -4 17 -9
11 -15z m1758 8 c0 -2 -7 -7 -16 -10 -8 -3 -12 -2 -9 4 6 10 25 14 25 6z
m-1830 -16 c0 -5 7 -7 15 -4 10 4 15 0 15 -10 0 -13 -4 -15 -19 -6 -24 12 -36
30 -22 30 6 0 11 -4 11 -10z m515 0 c3 -5 2 -10 -4 -10 -5 0 -13 5 -16 10 -3
6 -2 10 4 10 5 0 13 -4 16 -10z m852 -5 c0 -19 -7 -18 -31 0 -19 14 -19 15 5
15 16 0 26 -6 26 -15z m313 5 c0 -5 -9 -10 -21 -10 -11 0 -18 -4 -14 -9 3 -5
1 -12 -5 -16 -5 -3 -10 1 -10 10 0 12 21 28 48 34 1 1 2 -3 2 -9z m-545 -10
c-4 -6 6 -10 21 -10 37 0 19 -19 -22 -23 -23 -3 -30 0 -30 14 0 10 4 15 8 13
4 -3 8 0 8 5 0 6 5 11 11 11 5 0 7 -4 4 -10z m-418 -6 c-3 -3 -12 -4 -19 -1
-8 3 -5 6 6 6 11 1 17 -2 13 -5z m256 -9 c-3 -9 -8 -14 -10 -11 -3 3 -2 9 2
15 9 16 15 13 8 -4z m110 1 c7 3 -1 -6 -16 -20 -15 -14 -34 -26 -42 -26 -9 0
-12 -7 -9 -17 5 -17 5 -17 -6 0 -15 24 -40 22 -40 -4 0 -19 -4 -20 -42 -14
-35 6 -40 5 -35 -9 4 -9 2 -16 -3 -16 -6 0 -10 5 -10 10 0 12 -59 10 -66 -2
-3 -4 -15 -8 -27 -8 -16 0 -22 6 -23 24 -2 21 3 24 33 24 20 0 38 5 42 10 3 6
25 9 49 7 23 -2 42 0 42 4 0 4 19 6 43 5 23 -1 49 2 57 7 11 7 9 8 -9 3 -17
-4 -22 -3 -19 7 6 16 40 19 50 4 5 -6 8 -1 9 10 0 11 3 14 6 7 2 -6 10 -9 16
-6z m807 -26 c8 -5 11 -10 5 -10 -5 0 -17 5 -25 10 -8 5 -10 10 -5 10 6 0 17
-5 25 -10z m-1744 -31 c-14 -11 -23 -25 -20 -31 5 -7 0 -9 -14 -6 -19 5 -20 3
-11 -20 8 -20 7 -23 -3 -15 -7 5 -24 10 -37 11 -28 1 -55 22 -28 22 9 0 21 8
26 18 8 13 10 14 11 2 0 -9 3 -11 8 -5 13 19 57 44 76 44 16 1 15 -2 -8 -20z
m1497 4 c-7 -2 -19 -2 -25 0 -7 3 -2 5 12 5 14 0 19 -2 13 -5z m-1668 -13 c-3
-5 -12 -10 -20 -10 -8 0 -17 5 -20 10 -4 6 5 10 20 10 15 0 24 -4 20 -10z
m775 6 c0 -3 -4 -8 -10 -11 -5 -3 -10 -1 -10 4 0 6 5 11 10 11 6 0 10 -2 10
-4z m637 -38 c-7 -4 -16 -8 -22 -8 -5 0 -3 5 5 10 8 5 11 10 7 10 -5 0 -5 5
-1 11 4 8 9 7 15 -2 5 -8 3 -17 -4 -21z m-1214 7 c-3 -9 -8 -14 -10 -11 -3 3
-2 9 2 15 9 16 15 13 8 -4z m1642 -5 c-10 -11 -24 -20 -31 -20 -7 0 -14 -6
-17 -12 -4 -10 -7 -10 -18 0 -11 10 -11 12 2 12 7 0 25 9 39 20 33 26 48 26
25 0z m-620 -11 c-5 -15 -4 -19 4 -14 8 5 10 -2 6 -22 -4 -15 -3 -23 2 -17 4
6 17 14 27 17 16 6 17 5 6 -8 -10 -12 -9 -15 6 -15 16 0 17 -2 4 -11 -11 -8
-6 -9 20 -5 19 3 28 3 20 -1 -33 -14 -38 -27 -17 -45 19 -17 19 -18 1 -18 -10
0 -26 -5 -34 -11 -12 -8 -11 -9 5 -5 23 6 50 -7 42 -21 -3 -5 8 -22 24 -37 16
-16 28 -31 25 -33 -6 -6 -56 27 -56 38 0 5 -16 9 -36 9 -19 0 -33 3 -31 8 3 4
-6 15 -18 24 -20 15 -26 16 -37 5 -23 -23 -45 -26 -65 -8 -10 10 -24 16 -31
13 -6 -2 -12 1 -12 7 0 6 -4 11 -10 11 -5 0 -9 -6 -7 -12 1 -7 -9 -14 -23 -16
-18 -2 -21 0 -11 7 9 6 -8 8 -50 5 -54 -3 -61 -1 -47 10 16 12 16 13 -1 25
-17 13 -17 15 -2 30 9 10 19 13 22 9 7 -11 41 1 34 12 -3 4 12 2 33 -6 43 -15
72 -18 72 -5 0 5 -12 9 -26 9 -15 0 -30 6 -35 13 -12 20 -6 21 40 6 22 -8 41
-10 41 -5 0 5 4 7 9 3 5 -3 12 -1 16 5 3 5 1 10 -4 10 -6 0 -11 4 -11 9 0 4
12 6 26 3 17 -3 23 -9 20 -19 -4 -9 -1 -12 7 -8 6 4 3 -1 -7 -9 -19 -16 -19
-16 3 -16 18 0 22 4 18 20 -3 11 -1 23 4 26 5 3 7 10 3 15 -3 6 2 17 12 24 25
19 26 19 19 -6z m406 -6 c13 -16 12 -17 -3 -4 -10 7 -18 15 -18 17 0 8 8 3 21
-13z m-126 -14 c11 2 17 0 14 -3 -9 -10 -69 -16 -69 -7 0 14 13 21 24 13 6 -3
20 -5 31 -3z m-885 -25 c0 -9 5 -12 12 -8 7 4 8 3 4 -4 -5 -9 -12 -9 -26 0
-10 7 -16 16 -14 20 9 14 24 9 24 -8z m805 -4 c-3 -5 3 -10 14 -10 12 0 21 -4
21 -10 0 -13 -16 -13 -42 1 -17 9 -18 13 -7 20 18 11 22 11 14 -1z m618 3 c4
-3 2 -12 -4 -19 -8 -10 -16 -11 -31 -3 -17 9 -18 13 -7 20 17 10 33 11 42 2z
m-1153 -11 c0 -5 10 -14 23 -20 l22 -11 -22 0 c-12 -1 -29 6 -37 15 -20 19
-20 24 -1 24 8 0 15 -4 15 -8z m-50 -43 c0 -5 4 -8 9 -4 5 3 12 1 16 -5 9 -14
-7 -13 -46 5 -34 14 -34 14 -6 15 15 0 27 -5 27 -11z m533 -19 c-3 -11 -9 -20
-14 -20 -10 0 -12 24 -2 33 13 13 21 7 16 -13z m54 14 c-3 -3 -12 -4 -19 -1
-8 3 -5 6 6 6 11 1 17 -2 13 -5z m-1329 -29 c-3 -3 -9 2 -12 12 -6 14 -5 15 5
6 7 -7 10 -15 7 -18z m51 -16 c10 -4 9 -8 -5 -19 -10 -8 -15 -10 -11 -3 4 6 3
14 -3 18 -5 3 -10 1 -10 -4 0 -6 -9 -11 -20 -11 -11 0 -20 5 -20 10 0 6 9 10
20 10 11 0 20 6 20 13 0 8 3 9 8 1 4 -6 13 -13 21 -15z m758 15 c-3 -3 -12 -4
-19 -1 -8 3 -5 6 6 6 11 1 17 -2 13 -5z m-837 -14 c0 -5 -2 -10 -4 -10 -3 0
-8 5 -11 10 -3 6 -1 10 4 10 6 0 11 -4 11 -10z m1030 -30 c19 -16 21 -22 10
-35 -14 -16 -45 -21 -35 -5 3 6 1 10 -6 10 -9 0 -9 4 1 15 6 8 9 19 5 25 -10
16 0 12 25 -10z m380 10 c0 -5 -4 -10 -9 -10 -6 0 -13 5 -16 10 -3 6 1 10 9
10 9 0 16 -4 16 -10z m-467 -19 c-4 -14 10 -14 24 0 9 9 12 7 11 -7 -2 -19
-38 -30 -38 -12 0 4 -7 8 -15 8 -9 0 -12 6 -8 15 6 18 29 14 26 -4z m-763 -5
c0 -3 -4 -8 -10 -11 -5 -3 -10 -1 -10 4 0 6 5 11 10 11 6 0 10 -2 10 -4z
m1150 -5 c0 -5 -9 -7 -20 -4 -11 3 -20 7 -20 9 0 2 9 4 20 4 11 0 20 -4 20 -9z
m-1120 -9 c0 -13 -12 -22 -22 -16 -10 6 -1 24 13 24 5 0 9 -4 9 -8z m-234 -23
c9 -15 -33 -10 -45 5 -9 11 -6 12 14 8 14 -2 28 -8 31 -13z m47 -42 c7 4 -7
-32 -18 -45 -5 -6 -35 11 -35 20 0 6 6 5 15 -2 12 -10 15 -10 15 4 0 9 -6 16
-14 16 -8 0 -16 6 -19 14 -5 12 -2 12 20 1 15 -8 31 -11 36 -8z m1222 3 c3 -5
2 -10 -4 -10 -5 0 -13 5 -16 10 -3 6 -2 10 4 10 5 0 13 -4 16 -10z m100 0 c3
-5 1 -10 -4 -10 -6 0 -11 5 -11 10 0 6 2 10 4 10 3 0 8 -4 11 -10z m-1290 -30
c3 -5 2 -10 -4 -10 -5 0 -13 5 -16 10 -3 6 -2 10 4 10 5 0 13 -4 16 -10z m40
0 c-3 -5 -11 -10 -16 -10 -6 0 -7 5 -4 10 3 6 11 10 16 10 6 0 7 -4 4 -10z
m705 -4 c0 -2 -7 -7 -16 -10 -8 -3 -12 -2 -9 4 6 10 25 14 25 6z m1071 -29
c-12 -12 -81 -16 -74 -4 3 5 -3 8 -13 7 -38 -4 -46 -1 -33 13 10 10 26 11 71
4 40 -7 56 -13 49 -20z m-1276 2 c-3 -17 -2 -19 10 -9 17 14 136 19 127 6 -3
-5 3 -6 13 -2 10 3 33 1 52 -5 36 -11 88 -5 78 10 -3 5 5 7 17 3 22 -5 22 -5
-2 -16 -14 -6 -28 -14 -31 -19 -8 -11 -87 1 -95 14 -3 5 -13 0 -23 -12 -12
-15 -24 -20 -35 -16 -10 4 -15 11 -12 16 8 13 -67 10 -77 -3 -5 -7 -15 -2 -28
13 -15 19 -17 26 -7 32 18 12 17 12 13 -12z m1650 -28 c3 -6 -4 -15 -15 -21
-20 -11 -21 -10 -10 9 12 23 16 25 25 12z m-1203 -17 c9 -3 19 -13 22 -22 3
-10 17 -35 30 -57 14 -21 22 -43 20 -47 -3 -4 5 -8 18 -9 13 0 18 -3 11 -5 -7
-3 -9 -12 -6 -20 4 -10 -2 -14 -21 -14 -15 0 -29 7 -32 15 -4 10 -13 13 -25
10 -11 -4 -19 -2 -19 4 0 6 -7 11 -15 11 -8 0 -15 5 -15 10 0 6 -5 10 -11 10
-7 0 -10 -14 -7 -35 4 -37 -5 -43 -34 -21 -17 13 -19 61 -3 86 4 6 -4 20 -17
32 l-23 21 25 -7 c14 -4 34 -8 44 -7 10 0 32 -7 47 -15 43 -21 49 -17 9 7 -31
19 -33 23 -16 29 18 6 18 7 -5 24 -13 10 -17 15 -9 12 8 -3 22 -9 32 -12z m91
-8 c-4 -5 3 -7 15 -4 14 4 22 2 22 -7 0 -8 12 -12 35 -11 35 1 45 -7 24 -19
-6 -4 -8 -13 -5 -21 7 -18 3 -18 -67 4 -34 11 -64 28 -74 41 -15 23 -15 23 7
11 19 -10 22 -10 18 2 -4 9 1 14 12 14 10 0 16 -5 13 -10z m-1233 -6 c0 -5 5
-10 11 -10 6 0 22 -9 36 -20 32 -25 27 -25 -24 0 -46 22 -63 40 -39 40 9 0 16
-4 16 -10z m698 -25 c2 -12 0 -16 -5 -9 -4 6 -17 16 -28 23 -19 11 -19 11 5 9
16 -2 26 -10 28 -23z m117 -21 c35 -10 60 -11 83 -5 18 6 42 8 54 6 11 -3 28
-1 37 4 22 11 49 2 30 -10 -11 -6 -11 -11 -1 -21 6 -6 11 -21 11 -32 -1 -17
-2 -18 -6 -3 -5 20 -23 23 -23 4 0 -8 -6 -14 -14 -14 -8 0 -13 8 -11 19 2 10
0 18 -6 18 -5 0 -10 -4 -10 -10 -1 -5 -3 -14 -4 -20 -1 -5 -3 -14 -4 -19 0 -5
-10 -11 -21 -14 -18 -5 -19 -3 -4 24 9 18 10 29 4 29 -6 0 -13 -7 -16 -15 -4
-8 -15 -15 -25 -15 -10 0 -18 -5 -16 -11 1 -7 -13 -13 -31 -15 -23 -2 -30 1
-25 9 11 18 12 37 3 37 -5 0 -29 -9 -53 -19 -46 -20 -70 -17 -40 4 9 7 14 18
11 26 -3 8 -6 19 -8 24 -1 6 -6 18 -12 28 -10 20 -4 19 97 -9z m-785 -4 c0 -5
-7 -7 -15 -4 -8 4 -15 8 -15 10 0 2 7 4 15 4 8 0 15 -4 15 -10z m2345 -30 c3
-5 -1 -10 -10 -10 -9 0 -13 5 -10 10 3 6 8 10 10 10 2 0 7 -4 10 -10z m-1135
-10 c0 -5 -2 -10 -4 -10 -3 0 -8 5 -11 10 -3 6 -1 10 4 10 6 0 11 -4 11 -10z
m1094 -5 c-7 -17 -20 -20 -29 -6 -3 5 3 12 12 14 10 3 19 5 20 6 1 0 0 -6 -3
-14z m-2214 -5 c-8 -5 -19 -10 -25 -10 -5 0 -3 5 5 10 8 5 20 10 25 10 6 0 3
-5 -5 -10z m517 4 c-3 -3 -12 -4 -19 -1 -8 3 -5 6 6 6 11 1 17 -2 13 -5z
m-571 -19 c-22 -17 -62 -20 -71 -6 -5 10 21 17 65 19 24 1 24 1 6 -13z m1494
-16 c0 -8 5 -7 15 1 9 7 18 10 21 7 3 -3 -3 -10 -13 -15 -12 -6 -30 -5 -53 4
l-35 12 33 1 c17 1 32 -4 32 -10z m-1810 -19 c0 -5 -4 -10 -10 -10 -5 0 -10 5
-10 10 0 6 5 10 10 10 6 0 10 -4 10 -10z m1433 -39 c9 -10 7 -13 -8 -9 -12 2
-20 12 -21 23 -1 29 10 44 14 20 2 -11 9 -26 15 -34z m1227 28 c0 -5 -4 -9 -9
-9 -5 0 -17 -3 -26 -6 -15 -6 -15 -4 -4 14 12 19 39 20 39 1z m-1860 1 c22
-14 -1 -32 -44 -35 l-35 -3 26 24 c29 27 32 28 53 14z m1479 -21 c-7 -4 -16
-6 -20 -3 -4 2 -9 -1 -11 -8 -2 -6 -12 -9 -21 -5 -31 12 -9 33 29 29 24 -3 32
-7 23 -13z m-1409 1 c0 -6 37 -10 90 -10 81 0 90 -2 90 -18 0 -13 12 -22 35
-29 23 -7 33 -8 29 -1 -4 6 2 8 15 4 11 -3 30 -9 41 -12 25 -7 26 4 3 23 -16
13 -16 14 10 8 15 -3 27 -1 27 5 0 16 47 12 64 -6 9 -8 16 -12 16 -8 0 3 7 1
15 -6 8 -7 21 -10 29 -7 10 4 12 0 8 -15 -3 -14 -1 -19 6 -14 18 11 57 -13 43
-27 -8 -8 -14 -8 -23 1 -15 15 -32 16 -23 2 12 -20 -14 -10 -29 11 -8 12 -19
18 -26 14 -9 -6 -9 -9 0 -15 8 -5 4 -9 -10 -13 -15 -4 -20 -2 -16 8 6 18 -39
13 -62 -7 -15 -13 -21 -13 -50 -1 -18 7 -30 18 -27 23 7 12 -8 13 -19 3 -4 -5
-13 -8 -19 -8 -7 0 -11 -8 -9 -18 2 -12 -4 -17 -23 -17 -14 0 -24 4 -20 9 3 5
-1 16 -9 24 -11 10 -12 17 -4 25 7 7 8 15 3 19 -4 5 -10 2 -12 -4 -3 -7 -9
-13 -13 -13 -5 0 -20 -11 -34 -25 -14 -14 -33 -25 -43 -25 -15 0 -14 2 5 16
35 24 26 31 -35 29 -47 -2 -54 0 -35 8 12 5 22 14 22 19 0 15 -28 20 -50 8
-16 -9 -25 -9 -33 -1 -8 8 -6 11 7 11 9 0 15 4 11 9 -6 10 22 30 43 31 6 0 12
-4 12 -10z m1330 0 c0 -5 -4 -10 -10 -10 -5 0 -10 5 -10 10 0 6 5 10 10 10 6
0 10 -4 10 -10z m113 -42 c-13 -6 -23 -17 -23 -23 0 -7 -12 -16 -27 -19 -16
-4 -36 -9 -45 -12 -10 -3 -18 -1 -18 5 0 6 7 11 15 11 8 0 15 5 15 11 0 5 5 7
11 3 6 -3 14 -2 18 2 7 11 52 33 66 33 6 0 0 -5 -12 -11z m-2313 -8 c11 -8 7
-9 -15 -4 -37 8 -45 14 -19 14 10 0 26 -5 34 -10z m2514 -47 c-10 -10 -31 -24
-46 -32 -15 -8 -25 -19 -21 -24 3 -6 1 -7 -5 -3 -6 3 -13 2 -17 -4 -3 -5 -12
-10 -18 -10 -7 0 -6 4 3 10 9 6 10 10 3 10 -6 0 -15 -4 -18 -10 -3 -5 -20 -7
-38 -3 -31 5 -31 5 -12 -11 14 -12 16 -16 5 -15 -31 3 -42 -1 -37 -15 4 -10 1
-13 -9 -9 -16 6 -19 23 -4 23 6 0 10 9 10 20 0 12 7 20 18 20 24 0 136 36 170
54 36 20 40 20 16 -1z m-2559 -3 c3 -5 2 -10 -4 -10 -5 0 -13 5 -16 10 -3 6
-2 10 4 10 5 0 13 -4 16 -10z m1858 -3 c3 -9 -7 -13 -36 -14 -51 -3 -35 15 24
26 4 0 9 -5 12 -12z m-1521 -15 c4 -4 -7 -6 -25 -6 -18 1 -45 2 -60 3 -18 1
-26 5 -21 12 7 12 92 5 106 -9z m941 -6 c4 -10 0 -14 -12 -13 -11 1 -17 7 -14
14 7 17 20 17 26 -1z m-769 -21 c7 -20 -32 -20 -58 0 -19 14 -18 15 16 15 23
0 38 -6 42 -15z m-129 -22 c4 -12 -2 -15 -21 -12 -4 0 -11 -5 -15 -13 -7 -10
-9 -10 -9 0 0 10 -5 10 -22 1 -16 -8 -23 -9 -26 -1 -2 7 -11 8 -26 2 -20 -7
-22 -6 -19 14 4 21 10 23 69 22 41 -1 65 -5 69 -13z m555 7 c0 -5 -2 -10 -4
-10 -3 0 -8 5 -11 10 -3 6 -1 10 4 10 6 0 11 -4 11 -10z m1386 -5 c-25 -19
-36 -19 -36 0 0 10 10 15 28 15 26 -1 26 -1 8 -15z m-1260 -31 c6 -8 20 -14
30 -13 18 0 18 1 -1 9 -17 7 -15 9 13 9 40 1 40 -4 3 -23 -26 -14 -30 -14 -41
-1 -7 8 -20 15 -29 15 -9 0 -21 4 -26 9 -6 5 -19 12 -30 15 -11 3 0 3 25 0 25
-3 50 -12 56 -20z m1134 16 c0 -5 -10 -10 -22 -10 -19 0 -20 2 -8 10 19 13 30
13 30 0z m-1972 -37 c28 -3 52 -9 52 -13 0 -4 15 -10 34 -12 20 -2 32 0 29 6
-9 14 69 -1 85 -17 12 -12 8 -14 -27 -11 -23 2 -39 -1 -36 -6 3 -5 -11 -4 -31
2 -28 7 -39 7 -45 -4 -7 -10 -11 -7 -15 10 -6 22 -8 22 -25 6 -11 -10 -19 -12
-19 -6 0 7 -7 12 -15 12 -8 0 -15 5 -15 11 0 6 -9 8 -20 4 -11 -4 -20 -2 -20
4 0 6 -6 11 -12 11 -7 0 -24 9 -38 20 l-25 19 45 -15 c25 -9 69 -18 98 -21z
m189 11 c-9 -9 -28 6 -21 18 4 6 10 6 17 -1 6 -6 8 -13 4 -17z m773 2 c0 -2
-7 -7 -16 -10 -8 -3 -12 -2 -9 4 6 10 25 14 25 6z m-600 -22 c0 -2 -9 -4 -20
-4 -11 0 -20 4 -20 9 0 5 9 7 20 4 11 -3 20 -7 20 -9z m635 -4 c3 -5 1 -10 -4
-10 -6 0 -11 5 -11 10 0 6 2 10 4 10 3 0 8 -4 11 -10z m-60 -10 c3 -5 19 -10
36 -10 16 0 29 -4 29 -10 0 -5 -15 -9 -34 -7 -19 1 -32 6 -29 11 3 4 -9 5 -26
1 -18 -4 -31 -3 -31 3 0 19 45 29 55 12z m155 -5 c0 -12 -19 -12 -23 0 -4 9
-1 12 9 8 7 -3 14 -7 14 -8z m125 -5 c3 -5 -1 -10 -10 -10 -9 0 -13 5 -10 10
3 6 8 10 10 10 2 0 7 -4 10 -10z m-65 -30 c0 -17 -3 -19 -19 -11 -10 6 -21 7
-25 4 -3 -3 -6 -2 -6 4 0 15 11 23 32 23 11 0 18 -7 18 -20z m100 10 c0 -5 -4
-10 -10 -10 -5 0 -10 5 -10 10 0 6 5 10 10 10 6 0 10 -4 10 -10z m846 -5 c-36
-19 -45 -19 -20 0 10 8 26 14 34 15 8 0 2 -7 -14 -15z m-52 -25 c3 -3 -3 -6
-12 -6 -9 -1 -25 -4 -34 -9 -12 -5 -18 -3 -18 6 0 14 52 20 64 9z m-1999 -10
c3 -6 -1 -7 -9 -4 -18 7 -21 14 -7 14 6 0 13 -4 16 -10z m1622 -6 c-3 -3 -12
-4 -19 -1 -8 3 -5 6 6 6 11 1 17 -2 13 -5z m243 -3 c0 -5 -7 -11 -15 -15 -15
-5 -20 5 -8 17 9 10 23 9 23 -2z m-1800 -13 c0 -4 -6 -8 -14 -8 -8 0 -17 4
-20 8 -2 4 4 8 15 8 10 0 19 -4 19 -8z m620 -18 c47 -12 87 -24 89 -26 2 -2
-79 -4 -180 -3 -101 0 -179 2 -174 4 6 1 29 8 52 15 23 7 40 16 38 21 -6 9 30
16 65 13 14 -1 64 -12 110 -24z m290 10 c0 -5 -8 -10 -17 -10 -15 0 -16 2 -3
10 19 12 20 12 20 0z m-690 -10 c0 -5 -6 -10 -14 -10 -8 0 -18 5 -21 10 -3 6
3 10 14 10 12 0 21 -4 21 -10z m45 0 c8 -13 -5 -13 -25 0 -13 8 -13 10 2 10 9
0 20 -4 23 -10z m945 6 c0 -2 -7 -6 -15 -10 -8 -3 -15 -1 -15 4 0 6 7 10 15
10 8 0 15 -2 15 -4z m70 -12 c0 -2 -9 -4 -20 -4 -11 0 -20 4 -20 9 0 5 9 7 20
4 11 -3 20 -7 20 -9z"/>
<path d="M5590 7989 c0 -5 5 -7 10 -4 6 3 10 8 10 11 0 2 -4 4 -10 4 -5 0 -10
-5 -10 -11z"/>
<path d="M5506 7975 c-3 -8 -1 -15 3 -15 5 0 11 7 15 15 3 8 1 15 -3 15 -5 0
-11 -7 -15 -15z"/>
<path d="M5255 8110 c-3 -5 1 -10 10 -10 9 0 13 5 10 10 -3 6 -8 10 -10 10 -2
0 -7 -4 -10 -10z"/>
<path d="M4920 6255 l0 -45 40 0 40 0 0 -215 0 -215 -40 0 -40 0 0 -40 0 -40
125 0 125 0 0 40 c0 40 0 40 -40 40 l-40 0 -2 258 -3 257 -82 3 -83 3 0 -46z"/>
<path d="M5319 6285 c-37 -20 -49 -62 -49 -169 0 -112 18 -156 69 -170 22 -6
43 -6 62 1 l29 11 0 -83 c0 -89 -11 -112 -50 -100 -17 5 -20 15 -20 61 l0 54
-45 0 -45 0 0 -50 c0 -104 53 -159 143 -147 99 13 109 46 105 334 l-3 215 -33
29 c-27 24 -41 29 -85 29 -28 -1 -64 -7 -78 -15z m106 -165 l0 -95 -30 0 -30
0 -3 84 c-4 103 0 113 35 109 l28 -3 0 -95z"/>
<path d="M5658 6284 c-37 -19 -51 -72 -47 -171 3 -63 8 -86 24 -103 12 -14 15
-24 9 -28 -36 -23 -47 -161 -19 -228 36 -86 185 -84 221 3 11 26 15 60 12 114
-3 65 -7 82 -27 103 -14 14 -19 26 -13 26 6 0 19 14 28 32 13 24 15 51 12 121
-4 86 -6 91 -36 118 -27 24 -41 29 -85 29 -28 -1 -64 -7 -79 -16z m110 -156
l3 -88 -36 0 -35 0 0 83 c0 46 3 87 7 91 4 4 19 6 33 4 24 -3 25 -5 28 -90z
m2 -257 c0 -85 -12 -108 -50 -96 -18 6 -20 14 -20 91 l0 84 35 0 35 0 0 -79z"/>
<path d="M5993 6276 l-28 -24 -3 -245 -3 -246 29 -32 c26 -29 35 -33 84 -33
63 -1 101 16 117 51 7 15 11 108 11 259 l0 236 -29 29 c-26 26 -36 29 -90 29
-49 0 -65 -4 -88 -24z m125 -271 c2 -189 1 -211 -15 -222 -22 -17 -28 -16 -47
3 -13 13 -16 46 -16 209 0 106 3 201 6 210 5 11 16 15 38 13 l31 -3 3 -210z"/>
<path d="M4340 6240 c0 -49 -1 -50 -30 -50 -28 0 -30 -2 -30 -40 0 -38 2 -40
30 -40 l30 0 0 -205 0 -205 45 0 45 0 0 205 0 205 31 0 c29 0 30 2 27 38 -3
32 -7 37 -30 40 -26 3 -28 6 -28 53 l0 49 -45 0 -45 0 0 -50z"/>
<path d="M3693 6180 c-12 -5 -30 -21 -40 -37 -16 -23 -18 -50 -18 -203 0 -197
6 -219 72 -241 91 -30 173 21 173 107 l0 44 -40 0 c-36 0 -40 -3 -40 -24 0
-14 -7 -32 -16 -40 -18 -19 -20 -19 -45 -6 -15 9 -19 22 -19 70 l0 60 80 0 80
0 0 100 c0 110 -11 145 -51 166 -31 15 -102 18 -136 4z m95 -82 c7 -7 12 -34
12 -60 l0 -48 -40 0 -40 0 0 48 c0 50 12 72 40 72 9 0 21 -5 28 -12z"/>
<path d="M4023 6180 c-42 -17 -59 -65 -54 -154 1 -23 20 -47 81 -107 82 -80
93 -104 64 -133 -18 -19 -20 -19 -45 -6 -12 7 -19 21 -19 40 0 29 -2 30 -46
30 l-46 0 7 -42 c12 -70 23 -88 62 -105 50 -20 120 -11 152 21 25 26 38 95 26
143 -4 16 -38 58 -82 100 -62 59 -74 76 -71 99 7 60 70 56 76 -5 3 -29 6 -31
43 -31 39 0 39 0 39 40 0 52 -18 88 -51 106 -31 15 -102 18 -136 4z"/>
<path d="M1475 5820 l-240 -5 -3 -597 -2 -598 -95 0 -95 0 0 584 c0 321 -3
591 -6 600 -5 14 -38 16 -264 16 -226 0 -259 -2 -264 -16 -3 -9 -6 -668 -6
-1464 0 -1423 0 -1449 19 -1460 12 -6 112 -10 255 -10 200 0 237 2 250 16 14
14 16 82 16 605 l0 589 95 0 95 0 0 -593 c0 -448 3 -596 12 -605 16 -16 480
-17 509 -2 19 11 19 37 19 1463 0 799 -4 1457 -8 1463 -12 18 -37 19 -287 14z
m-714 -187 c-8 -15 -10 -15 -11 -2 0 17 10 32 18 25 2 -3 -1 -13 -7 -23z m655
10 c11 -19 11 -79 1 -90 -8 -7 -10 10 -7 45 1 12 -6 25 -14 28 -19 7 -21 34
-3 34 7 0 17 -8 23 -17z m104 -50 c-9 -15 -10 -14 -5 10 4 20 2 27 -10 27 -21
0 -19 18 3 22 21 4 29 -33 12 -59z m40 52 c0 -8 -2 -15 -4 -15 -2 0 -6 7 -10
15 -3 8 -1 15 4 15 6 0 10 -7 10 -15z m-726 -26 c-3 -5 -10 -7 -15 -3 -5 3 -7
10 -3 15 3 5 10 7 15 3 5 -3 7 -10 3 -15z m646 -29 c0 -5 -4 -10 -10 -10 -5 0
-10 5 -10 10 0 6 5 10 10 10 6 0 10 -4 10 -10z m-670 -30 c0 -5 -4 -10 -10
-10 -5 0 -10 5 -10 10 0 6 5 10 10 10 6 0 10 -4 10 -10z m759 3 c-3 -20 2 -26
11 -13 8 12 10 11 10 -7 0 -16 -4 -21 -15 -17 -10 4 -15 0 -15 -15 0 -12 -4
-21 -10 -21 -17 0 -16 46 2 68 12 14 19 16 17 5z m-109 -23 c0 -11 -2 -20 -4
-20 -2 0 -6 9 -9 20 -3 11 -1 20 4 20 5 0 9 -9 9 -20z m-600 0 c0 -5 -4 -10
-10 -10 -5 0 -10 5 -10 10 0 6 5 10 10 10 6 0 10 -4 10 -10z m605 -50 c-3 -5
-10 -10 -16 -10 -5 0 -9 5 -9 10 0 6 7 10 16 10 8 0 12 -4 9 -10z m-655 -30
c0 -5 -5 -10 -11 -10 -5 0 -7 5 -4 10 3 6 8 10 11 10 2 0 4 -4 4 -10z m584
-25 c-4 -8 -8 -15 -10 -15 -2 0 -4 7 -4 15 0 8 4 15 10 15 5 0 7 -7 4 -15z
m96 -26 c0 -6 -4 -7 -10 -4 -5 3 -10 11 -10 16 0 6 5 7 10 4 6 -3 10 -11 10
-16z m-75 -39 c3 -5 -1 -10 -9 -10 -9 0 -16 5 -16 10 0 6 4 10 9 10 6 0 13 -4
16 -10z m30 -60 c3 -5 1 -10 -4 -10 -6 0 -11 5 -11 10 0 6 2 10 4 10 3 0 8 -4
11 -10z m-700 -311 c10 -30 2 -32 -12 -3 -6 13 -7 24 -3 24 5 0 12 -9 15 -21z
m115 -23 c0 -3 -4 -8 -10 -11 -5 -3 -10 -1 -10 4 0 6 5 11 10 11 6 0 10 -2 10
-4z m20 -36 c0 -5 -7 -10 -16 -10 -8 0 -12 5 -9 10 3 6 10 10 16 10 5 0 9 -4
9 -10z m-163 -16 c-3 -3 -12 -4 -19 -1 -8 3 -5 6 6 6 11 1 17 -2 13 -5z m823
-13 c0 -13 -29 -35 -37 -27 -3 3 -1 6 6 6 8 0 11 7 7 15 -3 9 0 15 9 15 8 0
15 -4 15 -9z m80 -37 c0 -8 -4 -12 -10 -9 -5 3 -10 10 -10 16 0 5 5 9 10 9 6
0 10 -7 10 -16z m-180 -9 c0 -8 -7 -15 -15 -15 -16 0 -20 12 -8 23 11 12 23 8
23 -8z m-40 -30 c0 -8 -4 -15 -10 -15 -5 0 -10 7 -10 15 0 8 5 15 10 15 6 0
10 -7 10 -15z m162 -10 c-3 -14 1 -16 22 -11 29 7 36 -11 9 -21 -10 -4 -21
-11 -25 -17 -5 -6 -8 -2 -8 11 0 12 -4 25 -10 28 -15 9 -12 37 3 32 6 -2 11
-12 9 -22z m-682 -5 c0 -12 -56 -14 -64 -2 -2 4 11 9 30 10 19 2 34 -2 34 -8z
m637 -23 c-6 -19 -25 -19 -36 1 -9 17 -7 18 15 14 14 -2 23 -9 21 -15z m-697
-38 c0 -6 -4 -7 -10 -4 -5 3 -10 11 -10 16 0 6 5 7 10 4 6 -3 10 -11 10 -16z
m770 -29 c10 0 21 6 24 13 3 6 3 1 0 -13 -4 -14 -11 -27 -17 -29 -6 -2 -21
-15 -34 -27 -27 -27 -43 -31 -43 -9 0 8 7 15 16 15 12 0 15 6 10 24 -3 14 -3
32 0 41 6 16 8 16 16 1 5 -9 17 -16 28 -16z m-700 10 c0 -5 -7 -10 -15 -10 -8
0 -15 5 -15 10 0 6 7 10 15 10 8 0 15 -4 15 -10z m520 0 c0 -5 9 -10 20 -10
11 0 20 -4 20 -10 0 -5 -13 -10 -30 -10 -23 0 -30 4 -30 20 0 11 5 20 10 20 6
0 10 -4 10 -10z m-705 -30 c3 -5 1 -10 -4 -10 -6 0 -11 5 -11 10 0 6 2 10 4
10 3 0 8 -4 11 -10z m148 -30 c6 -23 -11 -28 -19 -6 -3 8 -12 12 -19 10 -7 -3
-16 -1 -20 5 -4 7 5 11 23 11 21 0 31 -6 35 -20z m567 -10 c11 0 20 5 20 11 0
5 5 7 10 4 17 -11 11 -20 -20 -32 -26 -10 -32 -9 -40 7 -13 25 -13 51 1 28 5
-10 19 -18 29 -18z m-635 -30 c-3 -5 -12 -10 -18 -10 -7 0 -6 4 3 10 19 12 23
12 15 0z m745 -35 c0 -13 -8 -31 -17 -41 -17 -16 -18 -15 -25 17 -3 19 -2 39
4 46 14 18 38 4 38 -22z m-85 -26 c0 -13 5 -28 12 -34 12 -10 7 -65 -6 -65 -3
0 -22 14 -41 31 l-35 30 23 16 c27 19 29 33 2 26 -11 -3 -20 -1 -20 5 0 10 35
21 55 17 6 -1 10 -13 10 -26z m165 -29 c0 -33 -4 -60 -9 -60 -6 0 -7 16 -4 36
5 28 2 40 -11 50 -16 12 -16 13 1 23 10 6 19 11 21 11 1 0 2 -27 2 -60z m-940
20 c0 -5 -4 -10 -10 -10 -5 0 -10 5 -10 10 0 6 5 10 10 10 6 0 10 -4 10 -10z
m47 -52 c-3 -7 -5 -2 -5 12 0 14 2 19 5 13 2 -7 2 -19 0 -25z m133 12 c0 -5
-2 -10 -4 -10 -3 0 -8 5 -11 10 -3 6 -1 10 4 10 6 0 11 -4 11 -10z m679 -57
c-9 -11 -15 -11 -28 -1 -9 7 -18 13 -20 15 -1 1 3 8 10 16 12 13 16 13 31 0
14 -12 15 -19 7 -30z m-679 18 c0 -5 3 -18 7 -28 6 -16 5 -16 -10 -4 -19 15
-23 41 -7 41 6 0 10 -4 10 -9z m533 -21 c4 -16 0 -20 -19 -20 -13 0 -24 6 -24
13 0 32 35 37 43 7z m227 -19 c0 -11 -11 -28 -25 -39 -27 -21 -34 -45 -11 -36
8 3 19 -3 25 -15 17 -30 13 -41 -13 -41 -13 0 -29 -7 -36 -15 -7 -8 -17 -15
-23 -15 -6 0 0 11 13 25 31 33 19 43 -25 22 -19 -9 -35 -12 -35 -7 0 6 6 10
14 10 28 0 27 20 -2 48 -19 19 -27 34 -22 42 4 7 13 9 19 6 6 -4 17 -4 24 1 6
4 19 8 27 10 8 1 16 7 18 12 2 6 15 11 28 11 17 0 24 -6 24 -19z m-720 -11 c0
-11 6 -36 14 -55 14 -34 11 -75 -5 -75 -5 0 -9 9 -9 20 0 17 -5 19 -25 14 -18
-4 -25 -2 -25 9 0 8 9 17 19 20 16 4 19 11 14 46 -4 27 -2 41 6 41 6 0 11 -9
11 -20z m-70 -5 c0 -8 -4 -15 -10 -15 -5 0 -10 7 -10 15 0 8 5 15 10 15 6 0
10 -7 10 -15z m390 5 c0 -5 -2 -10 -4 -10 -3 0 -8 5 -11 10 -3 6 -1 10 4 10 6
0 11 -4 11 -10z m-491 -19 c16 -10 6 -31 -14 -31 -8 0 -18 -8 -24 -17 -8 -15
-10 -14 -7 7 4 45 18 58 45 41z m358 -8 c-9 -9 -20 -13 -24 -9 -4 4 -1 11 7
16 25 16 35 11 17 -7z m315 -5 c-7 -7 -12 -8 -12 -2 0 14 12 26 19 19 2 -3 -1
-11 -7 -17z m-364 -11 c8 -10 6 -13 -9 -13 -10 0 -19 6 -19 13 0 7 4 13 9 13
5 0 13 -6 19 -13z m122 3 c0 -5 -5 -10 -11 -10 -5 0 -7 5 -4 10 3 6 8 10 11
10 2 0 4 -4 4 -10z m140 0 c13 -8 13 -10 -2 -10 -9 0 -20 5 -23 10 -8 13 5 13
25 0z m50 6 c0 -11 -19 -15 -25 -6 -3 5 1 10 9 10 9 0 16 -2 16 -4z m-120 -16
c0 -5 -7 -7 -15 -4 -8 4 -15 8 -15 10 0 2 7 4 15 4 8 0 15 -4 15 -10z m238
-12 c18 -18 15 -35 -7 -41 -20 -5 -32 16 -24 41 6 15 16 15 31 0z m-661 -14
c-3 -3 -12 -4 -19 -1 -8 3 -5 6 6 6 11 1 17 -2 13 -5z m308 -14 c3 -5 1 -10
-4 -10 -6 0 -11 5 -11 10 0 6 2 10 4 10 3 0 8 -4 11 -10z m263 -37 c2 -8 -5
-13 -17 -13 -12 0 -21 6 -21 16 0 18 31 15 38 -3z m-663 -32 c3 -5 1 -12 -5
-16 -5 -3 -10 1 -10 9 0 18 6 21 15 7z m907 -11 c10 -23 9 -68 -2 -75 -6 -3
-17 0 -25 8 -16 17 -10 28 11 20 16 -6 19 13 4 22 -5 3 -15 15 -21 26 -9 17
-7 20 8 17 10 -2 21 -10 25 -18z m-307 -4 c16 -16 10 -26 -17 -26 -18 0 -25
20 -11 33 9 10 13 9 28 -7z m125 -2 c0 -17 -22 -14 -28 4 -2 7 3 12 12 12 9 0
16 -7 16 -16z m80 2 c0 -8 -12 -23 -27 -34 -27 -19 -27 -21 -10 -39 9 -11 14
-22 11 -26 -4 -4 1 -18 10 -32 l16 -25 -33 0 c-31 0 -57 14 -57 32 0 5 9 3 20
-4 10 -7 22 -9 25 -6 10 10 -5 48 -18 45 -23 -4 -16 29 14 66 32 39 49 47 49
23z m16 -73 c-11 -11 -19 6 -11 24 8 17 8 17 12 0 3 -10 2 -21 -1 -24z m-666
11 c0 -8 -4 -12 -10 -9 -5 3 -10 10 -10 16 0 5 5 9 10 9 6 0 10 -7 10 -16z
m-73 -26 c-3 -8 -6 -5 -6 6 -1 11 2 17 5 13 3 -3 4 -12 1 -19z m-47 2 c0 -5
-2 -10 -4 -10 -3 0 -8 5 -11 10 -3 6 -1 10 4 10 6 0 11 -4 11 -10z m110 -46
c0 -8 -5 -12 -10 -9 -6 4 -8 11 -5 16 9 14 15 11 15 -7z m760 -14 c0 -5 -5
-10 -11 -10 -5 0 -7 5 -4 10 3 6 8 10 11 10 2 0 4 -4 4 -10z m-170 -50 c0 -5
-2 -10 -4 -10 -3 0 -8 5 -11 10 -3 6 -1 10 4 10 6 0 11 -4 11 -10z m154 4 c9
-3 16 -18 16 -32 0 -24 -1 -24 -18 -9 -27 25 -42 21 -48 -13 -7 -31 -24 -42
-24 -14 0 23 32 74 46 74 7 0 19 -3 28 -6z m-114 -44 c-6 -12 -14 -19 -17 -16
-4 3 0 18 8 32 7 14 15 21 17 15 2 -5 -2 -20 -8 -31z m-50 -25 c0 -9 -6 -12
-15 -9 -8 4 -15 10 -15 15 0 5 7 9 15 9 8 0 15 -7 15 -15z m114 -51 c9 -24 7
-28 -9 -14 -17 14 -20 30 -6 30 5 0 12 -7 15 -16z m59 10 c8 -8 -3 -34 -14
-34 -5 0 -9 9 -9 20 0 19 11 26 23 14z m-183 -59 c0 -19 -5 -25 -20 -25 -20 0
-20 1 -3 25 22 30 23 30 23 0z m107 -87 c0 -18 -5 -23 -29 -24 l-29 -1 22 23
c28 30 37 30 36 2z m33 -104 c0 -2 -7 -4 -15 -4 -8 0 -15 4 -15 10 0 5 7 7 15
4 8 -4 15 -8 15 -10z m25 -43 c8 -14 -13 -24 -33 -16 -14 5 -14 7 -2 15 19 12
27 12 35 1z m-85 -17 c0 -8 -5 -12 -10 -9 -6 4 -8 11 -5 16 9 14 15 11 15 -7z
m-90 -368 c0 -2 -7 -9 -15 -16 -12 -10 -15 -10 -15 4 0 9 7 16 15 16 8 0 15
-2 15 -4z m167 -102 c-3 -3 -12 -4 -19 -1 -8 3 -5 6 6 6 11 1 17 -2 13 -5z
m23 -44 c0 -5 -4 -10 -9 -10 -6 0 -13 5 -16 10 -3 6 1 10 9 10 9 0 16 -4 16
-10z m-32 -22 c-5 -13 -8 -13 -50 -8 -20 2 -19 3 7 10 44 11 47 11 43 -2z
m-88 -52 c0 -2 3 -11 6 -19 4 -12 0 -14 -15 -10 -24 6 -29 33 -6 33 8 0 15 -2
15 -4z m98 -33 c-10 -2 -26 -2 -35 0 -10 3 -2 5 17 5 19 0 27 -2 18 -5z"/>
<path d="M4550 5750 l0 -50 50 0 50 0 0 50 0 50 -50 0 -50 0 0 -50z"/>
<path d="M1986 5464 c-14 -14 -16 -124 -16 -1058 0 -1139 1 -1159 57 -1276 54
-113 177 -207 313 -241 73 -18 298 -18 370 0 137 35 235 108 293 219 75 142
71 74 74 1267 2 679 0 1075 -7 1085 -13 22 -431 28 -448 7 -9 -10 -12 -284
-14 -1033 -3 -941 -4 -1021 -20 -1050 -33 -60 -112 -50 -135 16 -9 26 -12 290
-12 1047 -1 990 -1 1013 -20 1023 -12 6 -101 10 -220 10 -168 0 -202 -2 -215
-16z m194 -158 c0 -19 -5 -38 -12 -42 -7 -5 -9 0 -6 14 4 12 0 26 -8 33 -20
16 -17 29 6 29 16 0 20 -7 20 -34z m118 -10 c-6 -10 -25 -39 -44 -63 -26 -34
-35 -41 -40 -29 -3 9 -12 16 -20 16 -11 0 -11 5 -2 25 6 13 15 22 19 19 5 -3
9 2 9 12 0 15 2 15 25 0 24 -16 25 -15 25 3 0 11 -8 24 -17 30 -16 9 -16 11 7
19 32 12 52 -5 38 -32z m522 34 c0 -5 -5 -10 -11 -10 -5 0 -7 5 -4 10 3 6 8
10 11 10 2 0 4 -4 4 -10z m-595 -10 c3 -5 2 -10 -4 -10 -5 0 -13 5 -16 10 -3
6 -2 10 4 10 5 0 13 -4 16 -10z m702 -35 c8 -9 12 -19 9 -22 -4 -4 -16 3 -28
15 -14 13 -17 22 -10 22 8 0 20 -7 29 -15z m-797 -10 c0 -9 -6 -12 -15 -9 -8
4 -15 10 -15 15 0 5 7 9 15 9 8 0 15 -7 15 -15z m180 -55 c0 -11 -7 -20 -15
-20 -8 0 -15 9 -15 20 0 11 7 20 15 20 8 0 15 -9 15 -20z m-183 -30 c0 -16 -4
-27 -9 -24 -4 3 -8 16 -8 30 0 13 4 24 8 24 5 0 9 -13 9 -30z m26 5 c-3 -9 -8
-14 -10 -11 -3 3 -2 9 2 15 9 16 15 13 8 -4z m38 -18 c-10 -9 -11 -8 -5 6 3
10 9 15 12 12 3 -3 0 -11 -7 -18z m72 -22 c-7 -21 -13 -19 -13 6 0 11 4 18 10
14 5 -3 7 -12 3 -20z m47 -46 c0 -11 -4 -17 -10 -14 -5 3 -10 13 -10 21 0 8 5
14 10 14 6 0 10 -9 10 -21z m480 11 c0 -5 -7 -10 -15 -10 -8 0 -15 5 -15 10 0
6 7 10 15 10 8 0 15 -4 15 -10z m-30 -40 c0 -5 -4 -10 -10 -10 -5 0 -10 5 -10
10 0 6 5 10 10 10 6 0 10 -4 10 -10z m-550 -20 c0 -5 -7 -10 -16 -10 -8 0 -12
5 -9 10 3 6 10 10 16 10 5 0 9 -4 9 -10z m20 -51 c-7 -11 -14 -19 -16 -16 -7
7 7 37 17 37 6 0 5 -9 -1 -21z m580 3 c0 -13 -12 -22 -22 -16 -10 6 -1 24 13
24 5 0 9 -4 9 -8z m-527 -72 c3 -11 1 -18 -4 -14 -5 3 -9 12 -9 20 0 20 7 17
13 -6z m584 -16 c-3 -3 -12 -4 -19 -1 -8 3 -5 6 6 6 11 1 17 -2 13 -5z m61
-71 c-1 -22 -6 -28 -24 -28 -30 0 -31 18 -1 38 12 9 23 16 24 16 1 1 1 -11 1
-26z m12 -248 c0 -8 -4 -15 -10 -15 -5 0 -7 7 -4 15 4 8 8 15 10 15 2 0 4 -7
4 -15z m-720 -5 c0 -5 -9 -10 -20 -10 -11 0 -20 5 -20 10 0 6 9 10 20 10 11 0
20 -4 20 -10z m-90 -25 c0 -8 -4 -15 -10 -15 -5 0 -10 7 -10 15 0 8 5 15 10
15 6 0 10 -7 10 -15z m170 -55 c0 -5 -7 -10 -15 -10 -8 0 -15 5 -15 10 0 6 7
10 15 10 8 0 15 -4 15 -10z m10 -30 c0 -5 -4 -10 -10 -10 -5 0 -10 5 -10 10 0
6 5 10 10 10 6 0 10 -4 10 -10z m-25 -40 c3 -5 1 -10 -4 -10 -6 0 -11 5 -11
10 0 6 2 10 4 10 3 0 8 -4 11 -10z m25 -35 c0 -8 -4 -15 -10 -15 -5 0 -7 7 -4
15 4 8 8 15 10 15 2 0 4 -7 4 -15z m-138 -47 c-7 -7 -12 -8 -12 -2 0 14 12 26
19 19 2 -3 -1 -11 -7 -17z m138 -99 c0 -5 -7 -9 -15 -9 -8 0 -15 -5 -15 -11 0
-5 -4 -8 -10 -4 -5 3 -2 13 8 24 17 18 32 18 32 0z m-73 -35 c-3 -3 -12 -4
-19 -1 -8 3 -5 6 6 6 11 1 17 -2 13 -5z m-33 -166 c-3 -5 -12 -4 -20 3 -19 16
-18 18 6 12 11 -3 17 -9 14 -15z m93 -44 c-3 -4 -14 -3 -24 1 -12 5 -14 9 -5
12 6 3 12 12 13 21 0 13 3 11 11 -6 6 -12 8 -25 5 -28z m-8 -52 c-8 -12 -19
-17 -31 -14 -26 6 -16 28 10 24 13 -2 22 2 22 9 0 7 3 10 6 7 3 -3 0 -15 -7
-26z m596 -72 c3 -5 1 -10 -4 -10 -6 0 -11 5 -11 10 0 6 2 10 4 10 3 0 8 -4
11 -10z m-652 -20 c-3 -11 -9 -20 -14 -20 -10 0 -12 24 -2 33 13 13 21 7 16
-13z m-73 -30 c-8 -5 -17 -7 -19 -4 -3 3 1 9 9 14 8 5 17 7 19 4 3 -3 -1 -9
-9 -14z m111 -14 c-13 -7 -30 -24 -37 -37 -7 -13 -13 -18 -14 -10 0 20 40 61
59 61 11 -1 8 -5 -8 -14z m35 -33 c-11 -11 -19 6 -11 24 8 17 8 17 12 0 3 -10
2 -21 -1 -24z m-169 -9 c4 -15 -14 -37 -25 -30 -13 8 -3 48 11 43 6 -2 12 -7
14 -13z m138 -24 c3 -5 2 -10 -4 -10 -5 0 -13 5 -16 10 -3 6 -2 10 4 10 5 0
13 -4 16 -10z m659 -15 c3 -9 0 -15 -9 -15 -8 0 -15 7 -15 15 0 8 4 15 9 15 5
0 11 -7 15 -15z m-624 -35 c0 -5 -4 -10 -10 -10 -5 0 -10 5 -10 10 0 6 5 10
10 10 6 0 10 -4 10 -10z m580 -50 c0 -11 -4 -20 -8 -20 -4 0 -8 9 -9 20 -1 11
2 20 8 20 5 0 9 -9 9 -20z m-110 -10 c0 -5 -5 -10 -11 -10 -5 0 -7 5 -4 10 3
6 8 10 11 10 2 0 4 -4 4 -10z m44 -25 c3 -8 1 -15 -4 -15 -6 0 -10 7 -10 15 0
8 2 15 4 15 2 0 6 -7 10 -15z m-594 -56 c0 -5 -4 -9 -10 -9 -5 0 -10 7 -10 16
0 8 5 12 10 9 6 -3 10 -10 10 -16z m627 -1 c-3 -8 -6 -5 -6 6 -1 11 2 17 5 13
3 -3 4 -12 1 -19z m-580 6 c-3 -3 -12 -4 -19 -1 -8 3 -5 6 6 6 11 1 17 -2 13
-5z m543 -315 c0 -6 -4 -7 -10 -4 -5 3 -10 11 -10 16 0 6 5 7 10 4 6 -3 10
-11 10 -16z m-25 -149 c3 -5 2 -10 -4 -10 -5 0 -13 5 -16 10 -3 6 -2 10 4 10
5 0 13 -4 16 -10z m-335 -30 c0 -5 -2 -10 -4 -10 -3 0 -8 5 -11 10 -3 6 -1 10
4 10 6 0 11 -4 11 -10z"/>
<path d="M3310 5430 c-13 -8 -15 -161 -15 -1275 0 -1114 2 -1267 15 -1275 19
-12 420 -13 440 0 12 8 15 85 18 524 l4 516 217 0 c155 0 220 3 229 12 9 9 12
72 12 223 0 151 -3 214 -12 223 -9 9 -74 12 -230 12 l-218 0 2 288 3 287 249
2 c137 1 255 4 263 7 11 5 13 48 11 233 l-3 228 -485 2 c-295 2 -491 -1 -500
-7z m816 -156 c-4 -9 -9 -15 -11 -12 -3 3 -3 13 1 22 4 9 9 15 11 12 3 -3 3
-13 -1 -22z m41 -69 c9 -24 -1 -27 -15 -5 -8 13 -8 20 -2 20 6 0 13 -7 17 -15z
m-602 -784 c-6 -5 -25 10 -25 20 0 5 6 4 14 -3 8 -7 12 -15 11 -17z m75 -331
c0 -5 -5 -10 -11 -10 -5 0 -7 5 -4 10 3 6 8 10 11 10 2 0 4 -4 4 -10z m-143
-32 c-3 -8 -6 -5 -6 6 -1 11 2 17 5 13 3 -3 4 -12 1 -19z m-10 -550 c-3 -7 -5
-2 -5 12 0 14 2 19 5 13 2 -7 2 -19 0 -25z m88 -278 c3 -5 -1 -10 -10 -10 -9
0 -13 5 -10 10 3 6 8 10 10 10 2 0 7 -4 10 -10z m-25 -90 c0 -15 -7 -20 -24
-20 -14 0 -28 5 -31 10 -3 6 3 10 14 10 11 0 23 5 26 10 10 16 15 12 15 -10z
m66 -40 c5 -33 5 -34 -10 -16 -9 11 -16 31 -16 45 0 35 18 14 26 -29z m-80
-37 c-10 -10 -19 5 -10 18 6 11 8 11 12 0 2 -7 1 -15 -2 -18z m4 -34 c0 -5
-10 -9 -21 -9 -18 0 -19 2 -9 15 12 15 30 12 30 -6z m45 11 c3 -5 -3 -10 -15
-10 -12 0 -18 5 -15 10 3 6 10 10 15 10 5 0 12 -4 15 -10z m-100 -10 c-3 -5
-13 -10 -21 -10 -8 0 -14 5 -14 10 0 6 9 10 21 10 11 0 17 -4 14 -10z m130
-10 c3 -6 -4 -10 -17 -10 -18 0 -20 2 -8 10 19 12 18 12 25 0z"/>
<path d="M4370 5430 c-13 -8 -15 -162 -18 -1269 -2 -1138 -1 -1261 14 -1275
13 -14 47 -16 222 -16 114 0 214 5 222 10 13 8 15 82 18 525 l4 515 217 0
c155 0 220 3 229 12 9 9 12 72 12 223 0 151 -3 214 -12 223 -9 9 -74 12 -230
12 l-218 0 0 290 0 290 263 2 262 3 0 230 0 230 -485 2 c-295 2 -491 -1 -500
-7z m816 -156 c-4 -9 -9 -15 -11 -12 -3 3 -3 13 1 22 4 9 9 15 11 12 3 -3 3
-13 -1 -22z m41 -69 c9 -24 -1 -27 -15 -5 -8 13 -8 20 -2 20 6 0 13 -7 17 -15z
m-680 -1697 c-3 -7 -5 -2 -5 12 0 14 2 19 5 13 2 -7 2 -19 0 -25z m83 -278 c0
-5 -5 -10 -11 -10 -5 0 -7 5 -4 10 3 6 8 10 11 10 2 0 4 -4 4 -10z m-20 -90
c0 -15 -7 -20 -24 -20 -14 0 -28 5 -31 10 -3 6 3 10 14 10 11 0 23 5 26 10 10
16 15 12 15 -10z m66 -40 c5 -33 5 -34 -10 -16 -9 11 -16 31 -16 45 0 35 18
14 26 -29z m-76 -30 c0 -5 -4 -10 -10 -10 -5 0 -10 5 -10 10 0 6 5 10 10 10 6
0 10 -4 10 -10z m0 -41 c0 -5 -10 -9 -21 -9 -18 0 -19 2 -9 15 12 15 30 12 30
-6z m50 5 c0 -2 -7 -4 -15 -4 -8 0 -15 4 -15 10 0 5 7 7 15 4 8 -4 15 -8 15
-10z m-110 -4 c-19 -13 -30 -13 -30 0 0 6 10 10 23 10 18 0 19 -2 7 -10z m135
-10 c3 -6 -4 -10 -17 -10 -18 0 -20 2 -8 10 19 12 18 12 25 0z"/>
<path d="M5436 5424 c-14 -14 -16 -142 -16 -1265 0 -843 3 -1257 10 -1270 10
-18 23 -19 218 -19 114 0 212 4 219 8 9 5 14 109 19 382 6 265 10 362 17 330
19 -95 138 -656 143 -672 13 -44 29 -48 182 -48 81 0 153 4 161 9 14 9 54 175
126 530 24 117 46 216 49 219 3 3 6 -161 6 -364 0 -275 3 -373 12 -382 18 -18
412 -17 427 1 16 20 16 2524 0 2543 -17 20 -421 20 -438 0 -14 -16 -31 -87
-201 -811 -72 -302 -132 -561 -136 -575 -9 -40 -17 -14 -84 275 -34 149 -93
401 -132 560 -38 160 -81 339 -94 400 -14 60 -32 122 -40 137 l-15 28 -209 0
c-176 0 -211 -2 -224 -16z m1314 -148 c0 -3 -4 -8 -10 -11 -5 -3 -10 -1 -10 4
0 6 5 11 10 11 6 0 10 -2 10 -4z m-65 -556 c-3 -5 -13 -10 -21 -10 -8 0 -14 5
-14 10 0 6 9 10 21 10 11 0 17 -4 14 -10z m-25 -167 c13 3 17 0 13 -9 -5 -13
-63 -21 -63 -8 0 3 5 15 12 27 11 20 12 20 16 4 3 -13 10 -17 22 -14z m-925
-13 c-3 -5 -10 -10 -16 -10 -5 0 -9 5 -9 10 0 6 7 10 16 10 8 0 12 -4 9 -10z
m108 -50 c-8 -8 -33 32 -26 43 3 5 12 -1 19 -14 7 -13 10 -26 7 -29z m932 40
c-3 -5 -10 -10 -16 -10 -5 0 -9 5 -9 10 0 6 7 10 16 10 8 0 12 -4 9 -10z m-3
-42 c-6 -6 -15 -8 -19 -4 -4 4 -1 11 7 16 8 5 17 7 19 4 3 -2 -1 -10 -7 -16z
m68 -9 c0 -11 -7 -19 -16 -19 -11 0 -14 5 -10 16 3 9 6 20 6 25 0 6 5 7 10 4
6 -3 10 -15 10 -26z m-1258 -14 c-2 -14 -9 -28 -15 -32 -7 -4 -8 0 -4 11 4 10
7 24 7 32 0 8 4 14 9 14 4 0 6 -11 3 -25z m1112 10 c-4 -8 -8 -15 -10 -15 -2
0 -4 7 -4 15 0 8 4 15 10 15 5 0 7 -7 4 -15z m-131 -12 c8 -7 -11 -33 -24 -33
-5 0 -9 9 -9 20 0 19 20 27 33 13z m-656 -19 c-3 -3 -12 -4 -19 -1 -8 3 -5 6
6 6 11 1 17 -2 13 -5z m883 -10 c0 -2 -9 -4 -20 -4 -11 0 -20 4 -20 9 0 5 9 7
20 4 11 -3 20 -7 20 -9z m-810 -4 c0 -5 -4 -10 -10 -10 -5 0 -10 5 -10 10 0 6
5 10 10 10 6 0 10 -4 10 -10z m510 -4 c0 -3 -4 -8 -10 -11 -5 -3 -10 -1 -10 4
0 6 5 11 10 11 6 0 10 -2 10 -4z m-515 -56 c-10 -11 -22 -17 -27 -14 -12 8 11
34 30 34 13 0 12 -3 -3 -20z m565 8 c0 -7 13 -22 29 -33 29 -19 32 -35 7 -35
-7 0 -19 11 -26 25 -7 14 -22 25 -32 25 -10 0 -18 7 -18 15 0 8 9 15 20 15 11
0 20 -6 20 -12z m-946 -33 c17 -25 16 -25 -4 -13 -11 7 -20 18 -20 25 0 19 6
16 24 -12z m276 -15 c0 -5 -4 -10 -10 -10 -5 0 -10 5 -10 10 0 6 5 10 10 10 6
0 10 -4 10 -10z m690 -42 c0 -5 -9 -4 -20 2 -11 6 -20 12 -20 14 0 2 9 2 20
-1 11 -3 20 -9 20 -15z m326 -25 c-11 -11 -19 6 -11 24 8 17 8 17 12 0 3 -10
2 -21 -1 -24z m-1139 21 c-3 -3 -12 -4 -19 -1 -8 3 -5 6 6 6 11 1 17 -2 13 -5z
m989 -15 c3 -6 18 -8 33 -5 25 6 25 6 7 -9 -25 -19 -46 -19 -46 0 0 11 -8 13
-30 9 -19 -4 -30 -2 -30 5 0 14 57 15 66 0z m-160 -56 c-10 -10 -19 5 -10 18
6 11 8 11 12 0 2 -7 1 -15 -2 -18z m234 7 c0 -5 -5 -10 -11 -10 -5 0 -7 5 -4
10 3 6 8 10 11 10 2 0 4 -4 4 -10z m44 -15 c-4 -8 -10 -15 -15 -15 -4 0 -6 7
-3 15 4 8 10 15 15 15 4 0 6 -7 3 -15z m-114 -16 c0 -5 -4 -9 -10 -9 -5 0 -10
7 -10 16 0 8 5 12 10 9 6 -3 10 -10 10 -16z m-1140 -44 c0 -8 -2 -15 -4 -15
-2 0 -6 7 -10 15 -3 8 -1 15 4 15 6 0 10 -7 10 -15z m400 -159 c0 -3 -4 -8
-10 -11 -5 -3 -10 -1 -10 4 0 6 5 11 10 11 6 0 10 -2 10 -4z m-143 -53 c-3
-10 -5 -4 -5 12 0 17 2 24 5 18 2 -7 2 -21 0 -30z m-132 -337 c17 -9 22 -16
15 -21 -7 -4 -21 2 -33 14 -25 24 -20 27 18 7z m649 -52 c25 -9 19 -22 -9 -20
-25 1 -31 7 -18 19 8 8 8 8 27 1z m506 -4 c0 -5 -5 -10 -11 -10 -5 0 -7 5 -4
10 3 6 8 10 11 10 2 0 4 -4 4 -10z m-1137 -28 c-3 -14 -12 -22 -21 -20 -25 5
-25 24 0 35 28 13 29 13 21 -15z m562 8 c-10 -11 -21 -17 -24 -14 -3 3 3 12
13 20 28 20 32 17 11 -6z m65 -76 c-18 -21 -24 -10 -8 15 7 12 14 17 16 11 2
-6 -2 -17 -8 -26z m-770 7 c0 -20 -13 -41 -25 -41 -8 0 -10 9 -7 25 4 23 32
37 32 16z m1230 -12 c0 -11 -4 -17 -10 -14 -5 3 -10 13 -10 21 0 8 5 14 10 14
6 0 10 -9 10 -21z m-20 -29 c0 -5 -4 -10 -10 -10 -5 0 -10 5 -10 10 0 6 5 10
10 10 6 0 10 -4 10 -10z m-1090 -19 c0 -4 -9 -7 -20 -8 -11 -1 -20 4 -20 12 0
8 7 11 20 8 11 -3 20 -8 20 -12z m555 -1 c3 -5 -1 -10 -9 -10 -8 0 -18 5 -21
10 -3 6 1 10 9 10 8 0 18 -4 21 -10z m565 -10 c0 -5 -7 -10 -15 -10 -8 0 -15
5 -15 10 0 6 7 10 15 10 8 0 15 -4 15 -10z m-1222 -43 l11 -32 -24 30 c-28 33
-32 47 -12 39 7 -2 18 -19 25 -37z m554 -1 c-5 -20 -5 -20 -13 0 -13 33 -11
47 4 32 8 -7 12 -21 9 -32z m178 -11 c0 -8 -7 -15 -15 -15 -8 0 -15 7 -15 15
0 8 7 15 15 15 8 0 15 -7 15 -15z m-120 -4 c0 -6 -4 -13 -10 -16 -5 -3 -10 1
-10 9 0 9 5 16 10 16 6 0 10 -4 10 -9z m575 -1 c22 -8 24 -14 19 -37 -7 -31
-24 -55 -24 -34 0 7 -9 25 -20 41 -11 15 -17 30 -13 34 8 8 7 8 38 -4z m-1223
-67 c8 -10 6 -13 -6 -13 -12 0 -16 9 -15 43 2 34 3 36 6 12 3 -16 9 -36 15
-42z m548 52 c0 -8 -4 -15 -10 -15 -5 0 -10 7 -10 15 0 8 5 15 10 15 6 0 10
-7 10 -15z m140 5 c0 -5 -4 -10 -10 -10 -5 0 -10 5 -10 10 0 6 5 10 10 10 6 0
10 -4 10 -10z m-574 -47 l-16 -28 2 30 c2 17 8 33 13 37 17 12 17 -9 1 -39z
m481 5 c-3 -8 -6 -5 -6 6 -1 11 2 17 5 13 3 -3 4 -12 1 -19z m573 -3 c0 -8 -4
-15 -10 -15 -5 0 -10 7 -10 15 0 8 5 15 10 15 6 0 10 -7 10 -15z m-1109 -90
c-6 -33 -8 -36 -13 -17 -8 29 -28 28 -28 -1 0 -31 -9 -39 -26 -22 -18 18 -18
30 2 46 14 12 14 14 -3 20 -15 6 -14 8 10 14 15 4 27 14 27 23 0 14 3 13 19
-3 16 -16 18 -28 12 -60z m529 53 c0 -7 -5 -20 -10 -28 -7 -12 -12 -12 -22 -2
-9 9 -8 12 8 12 19 1 19 1 0 15 -19 15 -19 15 2 15 12 0 22 -6 22 -12z m595
-26 c0 -9 10 -21 23 -27 26 -11 31 -31 5 -20 -10 4 -25 7 -33 7 -8 0 -22 2
-30 4 -12 4 -12 7 -1 13 7 5 14 21 14 36 0 19 2 24 11 15 6 -6 11 -18 11 -28z
m-535 -2 c-19 -13 -30 -13 -30 0 0 6 10 10 23 10 18 0 19 -2 7 -10z m70 6 c0
-3 -4 -8 -10 -11 -5 -3 -10 -1 -10 4 0 6 5 11 10 11 6 0 10 -2 10 -4z m-570
-26 c12 -8 9 -10 -12 -10 -15 0 -30 5 -33 10 -8 13 25 13 45 0z m540 -9 c0 -9
-51 -34 -56 -28 -2 2 3 13 12 25 13 19 44 21 44 3z m-560 -85 c0 -3 -8 -6 -17
-6 -9 0 -25 -8 -35 -17 -15 -14 -21 -14 -31 -3 -9 10 -9 11 1 5 17 -9 41 22
42 54 l0 24 20 -26 c11 -14 20 -28 20 -31z m1080 39 c0 -8 -4 -15 -10 -15 -5
0 -7 7 -4 15 4 8 8 15 10 15 2 0 4 -7 4 -15z m-1199 -85 c5 0 9 -7 9 -15 0
-32 -28 -14 -34 23 -9 57 -5 82 7 35 5 -24 14 -43 18 -43z m604 0 c-3 -5 -10
-10 -16 -10 -5 0 -9 5 -9 10 0 6 7 10 16 10 8 0 12 -4 9 -10z m-505 -20 c0 -5
-5 -10 -11 -10 -5 0 -7 5 -4 10 3 6 8 10 11 10 2 0 4 -4 4 -10z"/>
<path d="M7490 5420 c-21 -40 -63 -298 -179 -1100 -128 -885 -195 -1419 -180
-1437 9 -10 57 -13 223 -13 116 0 216 4 223 8 7 4 17 29 23 56 9 42 60 419 60
446 0 6 45 10 109 10 l109 0 11 -51 c6 -28 18 -108 26 -177 21 -174 34 -252
46 -274 9 -17 27 -18 224 -18 212 0 215 0 229 23 12 19 10 50 -15 252 -57 455
-133 977 -253 1755 -30 190 -59 380 -65 423 -18 128 11 117 -306 117 -262 0
-275 -1 -285 -20z m167 -126 c-3 -3 -12 -4 -19 -1 -8 3 -5 6 6 6 11 1 17 -2
13 -5z m68 -16 c-6 -17 -4 -20 9 -15 11 4 16 1 16 -11 0 -9 3 -27 6 -39 4 -15
2 -23 -6 -23 -6 0 -14 9 -17 19 -4 16 -11 18 -46 13 -38 -5 -41 -4 -28 11 7
10 20 17 27 17 8 0 16 11 20 25 3 14 10 25 16 25 5 0 6 -10 3 -22z m89 7 c-4
-8 -1 -15 5 -15 6 0 8 -6 5 -14 -3 -8 0 -24 6 -36 7 -13 8 -20 2 -16 -13 8
-42 65 -42 83 0 7 7 13 15 13 9 0 12 -6 9 -15z m56 -25 c0 -5 -5 -10 -11 -10
-5 0 -7 5 -4 10 3 6 8 10 11 10 2 0 4 -4 4 -10z m80 -19 c0 -9 -7 -26 -15 -37
-13 -18 -14 -17 -15 17 0 20 3 39 6 42 10 10 24 -2 24 -22z m-304 -16 c0 -27
-3 -34 -14 -30 -8 3 -21 0 -28 -6 -8 -7 -14 -7 -14 -1 0 5 7 15 15 22 8 7 15
17 15 22 0 6 -7 8 -15 4 -8 -3 -15 0 -15 5 0 6 9 9 20 6 11 -3 20 -1 20 4 0 5
3 9 8 9 4 0 7 -16 8 -35z m136 -70 c-2 -19 -8 -35 -13 -35 -10 0 -12 31 -3 54
11 28 20 17 16 -19z m188 -29 c0 -3 -7 -6 -15 -6 -9 0 -15 9 -15 21 0 18 2 19
15 5 8 -8 15 -17 15 -20z m-383 -13 c-3 -10 -5 -4 -5 12 0 17 2 24 5 18 2 -7
2 -21 0 -30z m108 28 c3 -5 1 -12 -4 -15 -5 -3 -11 1 -15 9 -6 16 9 21 19 6z
m-73 -83 c4 -19 0 -23 -24 -24 -16 -1 -28 4 -28 11 0 8 8 11 21 8 18 -5 20 -3
14 17 -4 14 -3 20 3 16 5 -3 12 -16 14 -28z m88 11 c0 -5 -4 -9 -10 -9 -5 0
-10 7 -10 16 0 8 5 12 10 9 6 -3 10 -10 10 -16z m67 -55 c-3 -3 -12 -4 -19 -1
-8 3 -5 6 6 6 11 1 17 -2 13 -5z m43 -18 c0 -3 -4 -8 -10 -11 -5 -3 -10 -1
-10 4 0 6 5 11 10 11 6 0 10 -2 10 -4z m75 -76 c3 -5 1 -10 -4 -10 -6 0 -11 5
-11 10 0 6 2 10 4 10 3 0 8 -4 11 -10z m-335 -329 c0 -5 -7 -11 -15 -15 -9 -3
-15 0 -15 9 0 8 7 15 15 15 8 0 15 -4 15 -9z m300 -748 c0 -10 -25 -13 -90
-13 -49 0 -90 3 -90 8 0 4 13 99 30 212 16 113 34 257 40 320 6 63 14 126 17
140 4 19 91 -607 93 -667z m-360 657 c0 -5 -5 -10 -11 -10 -5 0 -7 5 -4 10 3
6 8 10 11 10 2 0 4 -4 4 -10z m-3 -62 c-3 -7 -5 -2 -5 12 0 14 2 19 5 13 2 -7
2 -19 0 -25z m193 -808 c0 -5 -4 -10 -10 -10 -5 0 -10 5 -10 10 0 6 5 10 10
10 6 0 10 -4 10 -10z m-228 -252 c-7 -7 -12 -8 -12 -2 0 14 12 26 19 19 2 -3
-1 -11 -7 -17z m688 12 c0 -5 -2 -10 -4 -10 -3 0 -8 5 -11 10 -3 6 -1 10 4 10
6 0 11 -4 11 -10z m-100 -114 c0 -8 -4 -17 -8 -20 -4 -2 -8 4 -8 15 0 10 4 19
8 19 4 0 8 -6 8 -14z m-656 -31 c11 -8 18 -17 15 -19 -7 -7 -49 13 -49 24 0
14 11 12 34 -5z m814 -63 c2 -7 -3 -12 -12 -12 -9 0 -16 7 -16 16 0 17 22 14
28 -4z m-60 -13 c-2 -6 -8 -10 -13 -10 -5 0 -11 4 -13 10 -2 6 4 11 13 11 9 0
15 -5 13 -11z m102 -40 c0 -5 -4 -9 -10 -9 -5 0 -10 7 -10 16 0 8 5 12 10 9 6
-3 10 -10 10 -16z m-60 -9 c0 -11 -7 -20 -15 -20 -18 0 -19 6 -2 25 16 19 17
18 17 -5z m-705 -89 c3 -5 1 -12 -5 -16 -5 -3 -10 1 -10 9 0 18 6 21 15 7z"/>
<path d="M8562 5428 c-17 -17 -17 -2529 0 -2546 17 -17 419 -17 436 0 9 9 12
111 12 397 0 211 2 382 5 380 2 -3 25 -97 49 -210 77 -351 117 -523 130 -549
l11 -25 212 -3 c182 -2 213 0 227 14 14 14 16 136 16 1265 0 826 -3 1257 -10
1269 -10 18 -21 19 -213 13 -111 -3 -208 -10 -214 -16 -10 -7 -13 -102 -13
-415 0 -223 -3 -403 -6 -400 -3 3 -45 184 -93 402 -60 272 -94 403 -106 416
-17 19 -31 20 -225 20 -147 0 -209 -3 -218 -12z m840 -157 c-1 -7 7 -22 19
-32 33 -28 15 -35 -25 -9 -20 12 -36 23 -36 25 0 2 -3 10 -6 19 -4 11 1 14 23
12 17 -1 27 -7 25 -15z m112 4 c3 -9 -3 -19 -14 -25 -11 -6 -20 -15 -20 -20 0
-14 27 -12 33 3 3 6 6 -3 6 -20 1 -18 -3 -33 -9 -33 -5 0 -10 5 -10 10 0 6 -6
10 -13 10 -7 0 -17 10 -22 23 -9 17 -7 27 10 44 24 27 31 28 39 8z m-87 -99
c-13 -13 -16 -13 -20 -1 -4 8 1 15 11 18 24 5 27 0 9 -17z m-677 -36 c0 -5 -2
-10 -4 -10 -3 0 -8 5 -11 10 -3 6 -1 10 4 10 6 0 11 -4 11 -10z m690 -20 c0
-5 -12 -10 -27 -10 -22 0 -25 2 -13 10 20 13 40 13 40 0z m-50 -91 c0 -6 -4
-7 -10 -4 -5 3 -10 11 -10 16 0 6 5 7 10 4 6 -3 10 -11 10 -16z m70 11 c0 -5
-2 -10 -4 -10 -3 0 -8 5 -11 10 -3 6 -1 10 4 10 6 0 11 -4 11 -10z m-680 -501
c0 -5 -4 -9 -10 -9 -5 0 -10 7 -10 16 0 8 5 12 10 9 6 -3 10 -10 10 -16z m680
-19 c0 -11 -4 -20 -10 -20 -5 0 -10 9 -10 20 0 11 5 20 10 20 6 0 10 -9 10
-20z m-726 -45 c-4 -8 -11 -15 -16 -15 -6 0 -5 6 2 15 7 8 14 15 16 15 2 0 1
-7 -2 -15z m116 -19 c0 -8 6 -17 13 -19 8 -4 7 -6 -3 -6 -23 -1 -43 15 -36 28
10 16 26 14 26 -3z m35 -76 c-3 -5 -12 -10 -18 -10 -7 0 -6 4 3 10 19 12 23
12 15 0z m592 -26 c-3 -3 -12 -4 -19 -1 -8 3 -5 6 6 6 11 1 17 -2 13 -5z
m-657 -11 c0 -5 -5 -15 -10 -23 -9 -13 -11 -13 -20 0 -15 22 -12 30 10 30 11
0 20 -3 20 -7z m130 -13 c0 -5 -5 -10 -11 -10 -5 0 -7 5 -4 10 3 6 8 10 11 10
2 0 4 -4 4 -10z m570 -30 c0 -5 -5 -10 -11 -10 -5 0 -7 5 -4 10 3 6 8 10 11
10 2 0 4 -4 4 -10z m-666 -43 c7 -20 6 -30 -3 -40 -11 -10 -12 -8 -7 9 4 13 1
26 -9 34 -8 7 -16 10 -16 6 -1 -3 -2 -10 -3 -15 -2 -18 -16 -24 -16 -8 0 10
-4 17 -10 17 -17 0 -11 18 8 23 32 9 47 2 56 -26z m649 -1 c6 -16 -2 -28 -14
-20 -12 7 -11 34 0 34 5 0 11 -6 14 -14z m-536 -28 c-3 -8 -6 -5 -6 6 -1 11 2
17 5 13 3 -3 4 -12 1 -19z m-177 -7 c0 -14 -26 -20 -52 -13 -21 6 -20 7 12 13
19 3 36 7 38 8 1 0 2 -3 2 -8z m160 -41 c0 -5 -2 -10 -4 -10 -3 0 -8 5 -11 10
-3 6 -1 10 4 10 6 0 11 -4 11 -10z m-120 -10 c0 -5 -4 -10 -10 -10 -5 0 -10 5
-10 10 0 6 5 10 10 10 6 0 10 -4 10 -10z m70 0 c0 -5 -4 -10 -10 -10 -5 0 -10
5 -10 10 0 6 5 10 10 10 6 0 10 -4 10 -10z m-22 -36 c-10 -10 -28 6 -28 24 0
15 1 15 17 -1 9 -9 14 -19 11 -23z m62 11 c0 -8 -4 -15 -10 -15 -5 0 -10 7
-10 15 0 8 5 15 10 15 6 0 10 -7 10 -15z m-154 -32 c-10 -10 -19 5 -10 18 6
11 8 11 12 0 2 -7 1 -15 -2 -18z m-86 -18 c0 -8 -4 -15 -10 -15 -5 0 -7 7 -4
15 4 8 8 15 10 15 2 0 4 -7 4 -15z m191 2 c-1 -12 -15 -9 -19 4 -3 6 1 10 8 8
6 -3 11 -8 11 -12z m-65 -12 c-21 -16 -32 -13 -21 4 3 6 14 11 23 11 15 -1 15
-2 -2 -15z m-46 -47 c0 -10 5 -18 10 -18 6 0 10 -4 10 -10 0 -5 -7 -10 -15
-10 -9 0 -15 9 -15 24 0 16 -7 27 -20 31 -11 3 -20 13 -20 21 0 22 49 -16 50
-38z m-46 -24 c3 -8 2 -12 -4 -9 -6 3 -10 10 -10 16 0 14 7 11 14 -7z m420
-33 c3 -5 0 -11 -8 -14 -15 -6 -26 1 -26 15 0 11 27 10 34 -1z m-274 -23 c0
-13 -23 -5 -28 10 -2 7 2 10 12 6 9 -3 16 -11 16 -16z m-90 -12 c0 -8 2 -20 3
-28 2 -7 2 -10 0 -5 -3 4 -11 7 -19 7 -14 0 -19 21 -7 33 11 12 23 8 23 -7z
m380 -6 c0 -5 -4 -10 -10 -10 -5 0 -10 5 -10 10 0 6 5 10 10 10 6 0 10 -4 10
-10z m-328 -82 c-6 -6 -15 -8 -19 -4 -4 4 -1 11 7 16 8 5 17 7 19 4 3 -2 -1
-10 -7 -16z m-104 -39 c-3 -8 -12 1 -22 21 l-17 35 22 -21 c12 -12 19 -28 17
-35z m422 21 c0 -5 -4 -10 -10 -10 -5 0 -10 5 -10 10 0 6 5 10 10 10 6 0 10
-4 10 -10z m360 -40 c0 -5 -5 -10 -11 -10 -5 0 -7 5 -4 10 3 6 8 10 11 10 2 0
4 -4 4 -10z m-695 -20 c3 -5 -1 -10 -9 -10 -9 0 -16 5 -16 10 0 6 4 10 9 10 6
0 13 -4 16 -10z m-115 -15 c0 -8 -4 -15 -9 -15 -13 0 -22 16 -14 24 11 11 23
6 23 -9z m680 -15 c0 -5 -4 -10 -10 -10 -5 0 -10 5 -10 10 0 6 5 10 10 10 6 0
10 -4 10 -10z m-560 -40 c11 -11 15 -22 10 -25 -6 -4 -10 -1 -10 4 0 6 -4 11
-10 11 -5 0 -10 -11 -10 -25 0 -14 -4 -25 -9 -25 -5 0 -8 18 -8 40 2 45 8 49
37 20z m405 0 c3 -5 -1 -10 -9 -10 -9 0 -16 5 -16 10 0 6 4 10 9 10 6 0 13 -4
16 -10z m-358 -62 c-3 -8 -6 -5 -6 6 -1 11 2 17 5 13 3 -3 4 -12 1 -19z m333
-13 c0 -8 -7 -15 -15 -15 -26 0 -18 20 13 29 1 1 2 -6 2 -14z m-380 -5 c0 -5
-4 -10 -10 -10 -5 0 -10 5 -10 10 0 6 5 10 10 10 6 0 10 -4 10 -10z m50 -31
c0 -5 -7 -9 -15 -9 -15 0 -20 12 -9 23 8 8 24 -1 24 -14z m-133 -21 c-3 -8 -6
-5 -6 6 -1 11 2 17 5 13 3 -3 4 -12 1 -19z m133 -18 c0 -5 -5 -10 -11 -10 -5
0 -7 5 -4 10 3 6 8 10 11 10 2 0 4 -4 4 -10z m350 -21 c0 -6 -4 -7 -10 -4 -5
3 -10 11 -10 16 0 6 5 7 10 4 6 -3 10 -11 10 -16z m-480 -34 c0 -8 -9 -15 -20
-15 -12 0 -20 -7 -20 -17 -1 -16 -2 -16 -12 1 -9 15 -7 22 8 33 24 17 44 17
44 -2z m101 -22 c13 -17 13 -17 -6 -3 -11 8 -22 16 -24 17 -2 2 0 3 6 3 6 0
17 -8 24 -17z m419 11 c0 -3 -7 -12 -15 -20 -16 -17 -18 -14 -9 10 6 15 24 23
24 10z m-534 -111 c-7 -7 -26 7 -26 19 0 6 6 6 15 -2 9 -7 13 -15 11 -17z
m694 8 c0 -6 -4 -13 -10 -16 -5 -3 -10 1 -10 9 0 9 5 16 10 16 6 0 10 -4 10
-9z m-135 -80 c-3 -12 -14 -21 -23 -21 -10 0 -13 3 -6 8 6 4 14 16 17 26 10
25 21 13 12 -13z m135 -23 c0 -5 -4 -8 -10 -8 -5 0 -10 10 -10 23 0 18 2 19
10 7 5 -8 10 -18 10 -22z m-585 -68 c-3 -5 -10 -10 -16 -10 -5 0 -9 5 -9 10 0
6 7 10 16 10 8 0 12 -4 9 -10z m525 -22 c0 -18 -2 -20 -9 -8 -6 8 -7 18 -5 22
9 14 14 9 14 -14z m-660 2 c0 -5 -2 -10 -4 -10 -3 0 -8 5 -11 10 -3 6 -1 10 4
10 6 0 11 -4 11 -10z m720 -10 c0 -5 -4 -10 -10 -10 -5 0 -10 5 -10 10 0 6 5
10 10 10 6 0 10 -4 10 -10z m80 -10 c0 -5 -5 -10 -11 -10 -5 0 -7 5 -4 10 3 6
8 10 11 10 2 0 4 -4 4 -10z m-114 -39 c-12 -19 -24 -12 -19 10 4 13 9 17 15
11 6 -6 7 -15 4 -21z m-76 -1 c0 -5 -4 -10 -9 -10 -6 0 -13 5 -16 10 -3 6 1
10 9 10 9 0 16 -4 16 -10z m135 -56 c-27 -29 -34 -20 -10 12 8 10 15 28 15 39
1 18 2 18 10 -2 7 -18 4 -28 -15 -49z m-64 19 c7 -7 5 -14 -5 -23 -13 -10 -17
-9 -23 6 -3 11 -11 22 -17 27 -6 4 -1 6 12 4 12 -2 27 -8 33 -14z m-681 -9 c0
-12 6 -15 23 -11 12 3 31 2 42 -2 17 -7 17 -8 -8 -15 -15 -3 -27 -11 -27 -16
0 -6 -4 -10 -10 -10 -5 0 -10 7 -10 15 0 8 -7 15 -15 15 -8 0 -15 9 -15 20 0
11 5 20 10 20 6 0 10 -7 10 -16z m633 -24 c3 -13 0 -20 -9 -20 -8 0 -14 10
-14 26 0 28 15 25 23 -6z m-583 -45 c0 -8 -7 -15 -16 -15 -14 0 -14 3 -4 15 7
8 14 15 16 15 2 0 4 -7 4 -15z m105 -13 c-10 -2 -25 3 -33 12 -15 14 -13 15
17 3 23 -8 28 -13 16 -15z m556 5 c-13 -13 -26 -3 -16 12 3 6 11 8 17 5 6 -4
6 -10 -1 -17z m72 16 c-7 -2 -19 -2 -25 0 -7 3 -2 5 12 5 14 0 19 -2 13 -5z"/>
<path d="M3238 2731 l-33 -29 0 -229 c0 -201 2 -232 17 -256 39 -58 157 -58
196 0 15 24 17 55 17 256 l0 229 -33 29 c-26 24 -41 29 -82 29 -41 0 -56 -5
-82 -29z m117 -73 c3 -13 4 -106 3 -207 -3 -162 -5 -185 -20 -195 -13 -8 -23
-8 -35 0 -16 10 -18 33 -21 195 -3 220 -2 229 38 229 22 0 31 -5 35 -22z"/>
<path d="M5118 2731 l-33 -29 0 -230 c0 -218 1 -232 21 -259 30 -40 98 -53
150 -27 60 29 66 60 62 307 l-3 209 -33 29 c-26 24 -41 29 -82 29 -41 0 -56
-5 -82 -29z m117 -73 c3 -13 4 -106 3 -207 -3 -162 -5 -185 -20 -195 -13 -8
-23 -8 -35 0 -16 10 -18 33 -21 195 -3 220 -2 229 38 229 22 0 31 -5 35 -22z"/>
<path d="M6608 2731 l-33 -29 0 -99 0 -98 38 -3 37 -3 0 75 c0 94 5 106 41
106 37 0 41 -16 37 -144 l-3 -99 -45 -13 c-71 -21 -94 -52 -98 -134 -4 -63 -2
-71 21 -94 31 -31 65 -33 101 -5 21 17 26 18 26 5 0 -12 10 -16 41 -16 l40 0
-3 258 c-3 275 -6 289 -55 311 -13 6 -44 11 -68 11 -35 0 -52 -6 -77 -29z
m119 -418 c-7 -42 -23 -63 -48 -63 -31 0 -26 63 7 89 34 27 48 17 41 -26z"/>
<path d="M2810 2465 l0 -285 40 0 40 0 2 198 3 197 29 -52 c16 -29 32 -53 35
-53 3 0 20 24 36 53 l30 52 3 -197 2 -198 40 0 40 0 0 285 0 285 -32 0 c-30 0
-36 -6 -73 -70 -22 -38 -42 -70 -45 -70 -3 0 -23 32 -45 70 -37 64 -43 70 -72
70 l-33 0 0 -285z"/>
<path d="M3530 2465 l0 -285 70 0 c85 0 136 19 150 55 16 42 12 100 -8 125
-18 23 -18 24 0 42 16 16 18 35 18 154 l0 136 -29 29 c-28 28 -34 29 -115 29
l-86 0 0 -285z m148 86 c3 -121 0 -131 -45 -131 -23 0 -23 2 -23 126 l0 125
33 -3 32 -3 3 -114z m-3 -251 c0 -32 -3 -35 -32 -38 -32 -3 -33 -3 -33 38 0
41 1 41 33 38 29 -3 32 -6 32 -38z"/>
<path d="M3850 2465 l0 -285 40 0 40 0 0 285 0 285 -40 0 -40 0 0 -285z"/>
<path d="M4030 2465 l0 -285 105 0 105 0 0 40 0 40 -65 0 -65 0 0 245 0 245
-40 0 -40 0 0 -285z"/>
<path d="M4310 2465 l0 -285 105 0 105 0 0 40 0 40 -65 0 -65 0 0 35 0 35 55
0 55 0 0 40 0 40 -55 0 -55 0 0 130 0 130 65 0 65 0 0 40 0 40 -105 0 -105 0
0 -285z"/>
<path d="M4760 2465 l0 -285 40 0 40 0 0 75 0 75 35 0 35 0 0 -75 0 -75 40 0
40 0 0 285 0 285 -40 0 -40 0 0 -170 0 -170 -35 0 -35 0 0 170 0 170 -40 0
-40 0 0 -285z"/>
<path d="M5410 2465 l0 -285 40 0 40 0 2 198 3 197 29 -52 c16 -29 32 -53 35
-53 3 0 20 24 36 53 l30 52 3 -197 2 -198 40 0 40 0 0 285 0 285 -32 0 c-30 0
-36 -6 -73 -70 -22 -38 -42 -70 -45 -70 -3 0 -23 32 -45 70 -37 64 -43 70 -72
70 l-33 0 0 -285z"/>
<path d="M5810 2465 l0 -285 105 0 105 0 0 40 0 40 -65 0 -65 0 0 35 0 35 55
0 55 0 0 40 0 40 -55 0 -55 0 0 130 0 130 65 0 65 0 0 40 0 40 -105 0 -105 0
0 -285z"/>
<path d="M6270 2465 l0 -285 40 0 40 0 0 74 0 73 38 7 c86 13 112 63 112 211
-1 179 -19 204 -147 205 l-83 0 0 -285z m140 186 c5 -11 10 -61 10 -112 0 -98
-12 -129 -52 -129 -17 0 -18 10 -18 130 l0 130 25 0 c14 0 29 -8 35 -19z"/>
<path d="M6890 2465 l0 -285 40 0 40 0 0 75 c0 41 4 75 9 75 5 0 24 -34 42
-75 l33 -75 44 0 c24 0 42 3 40 8 -2 4 -20 40 -41 80 l-38 73 25 30 c14 16 28
49 32 75 8 52 0 230 -11 257 -13 31 -59 47 -140 47 l-75 0 0 -285z m144 189
c10 -26 7 -204 -4 -225 -6 -11 -21 -19 -35 -19 l-25 0 0 130 0 130 29 0 c17 0
31 -6 35 -16z"/>
<path d="M7210 2465 l0 -285 40 0 40 0 0 78 0 77 46 -77 c44 -77 45 -78 84
-78 40 0 48 7 31 26 -4 5 -27 44 -50 88 l-41 78 49 190 50 189 -42 -3 -41 -3
-42 -170 -42 -170 -1 173 -1 172 -40 0 -40 0 0 -285z"/>
</g>
</svg>
